<svg id="Layer_1" data-name="Layer 1" xmlns="http://www.w3.org/2000/svg" xmlns:xlink="http://www.w3.org/1999/xlink" viewBox="0 0 485.92 470.93"><defs><style>.cls-1{fill:none;}.cls-2{fill:#010101;}.cls-3{fill:#505050;}.cls-4{fill:#232323;}.cls-5{fill:#060606;}.cls-6{fill:#262525;}.cls-7{fill:#3f3f3f;}.cls-8{fill:#303030;}.cls-9{fill:#888;}.cls-10{fill:#7f8080;}.cls-11{fill:#959595;}.cls-12{fill:#989898;}.cls-13{fill:#6c6d6d;}.cls-14{fill:#656465;}.cls-15{fill:#222;}.cls-16{fill:#3c3c3b;}.cls-17{fill:#242424;}.cls-18{fill:#090909;}.cls-19{fill:#595a5a;}.cls-20{fill:#353635;}.cls-21{fill:#bdbdbd;}.cls-22{fill:#0d0d0d;}.cls-23{fill:#595759;}.cls-24{fill:#555554;}.cls-25{fill:#9b9c9c;}.cls-26{fill:#070707;}.cls-27{fill:#bcbcbc;}.cls-28{fill:#404040;}.cls-29{fill:#212121;}.cls-30{fill:#5d5d5d;}.cls-31{fill:#c2baba;}.cls-32{fill:#a7a7a6;}.cls-33{fill:#e0e1dc;}.cls-34{fill:#fffffc;}.cls-35{fill:#f2f2f0;}.cls-36{fill:#dbe476;}.cls-37{fill:#d6e593;}.cls-38{fill:#7d9b3d;}.cls-39{fill:#81993d;}.cls-40{fill:#d5e59e;}.cls-41{fill:#c1d82f;}.cls-42{fill:#b0b1b1;}.cls-43{fill:#a2a2a1;}.cls-44{fill:#e3ea95;}.cls-45{fill:#88aa3e;}.cls-46{fill:#dce57c;}.cls-47{fill:#87a73e;}.cls-48{fill:#d4e058;}.cls-49{fill:#cadb32;}.cls-50{fill:#d6e375;}.cls-51{fill:#c9cac9;}.cls-52{fill:#e9e8e8;}.cls-53{fill:#96a565;}.cls-54{fill:#afadad;}.cls-55{fill:#8b8f80;}.cls-56{fill:#a0c73a;}.cls-57{fill:#d2e172;}.cls-58{fill:#c2b831;}.cls-59{fill:#9aaf3b;}.cls-60{fill:#f1f1ee;}.cls-61{fill:#fff;}.cls-164,.cls-61{opacity:0.37;isolation:isolate;}.cls-62{fill:#a5a5a5;}.cls-63{fill:#c3c3c3;}.cls-64{fill:#e0e1e0;}.cls-65{fill:#cbcbca;}.cls-66{fill:#d9d8d8;}.cls-67{fill:#848383;}.cls-68{fill:#cfd0d0;}.cls-69{fill:#cacaca;}.cls-70{fill:#abb196;}.cls-71{fill:#4d4d4d;}.cls-72{fill:#757575;}.cls-73{fill:#969696;}.cls-74{fill:#8b8a8b;}.cls-75{fill:#979991;}.cls-76{fill:#b2b2b2;}.cls-77{fill:#c4c4c3;}.cls-78{fill:#414141;}.cls-79{fill:#d0cfce;}.cls-80{fill:#7c7b7b;}.cls-81{fill:#9a9a9a;}.cls-82{fill:#c9c9c9;}.cls-83{fill:#cedaaa;}.cls-84{fill:#a8a7a6;}.cls-85{fill:#b0b0b0;}.cls-86{fill:#d7d6d6;}.cls-87{fill:#eaeaea;}.cls-88{fill:#babab9;}.cls-89{fill:#dce1c2;}.cls-90{fill:#d0d1d1;}.cls-91{fill:#ddd;}.cls-92{fill:#858c71;}.cls-93{fill:#e2e7d3;}.cls-94{fill:#c6c5c5;}.cls-95{fill:#6b6b6b;}.cls-96{fill:#ccc;}.cls-97{fill:#c8c7c6;}.cls-98{fill:#cfcfce;}.cls-99{fill:#828c61;}.cls-100{fill:#8c8c8c;}.cls-101{fill:#676868;}.cls-102{fill:#bcbcbb;}.cls-103{fill:#8b8b8b;}.cls-104{fill:#484848;}.cls-105{fill:#959494;}.cls-106{fill:#c4c4c4;}.cls-107{fill:#d7d7d6;}.cls-108{fill:#7e7e7e;}.cls-109{fill:#b3b3b2;}.cls-110{fill:#8b995e;}.cls-111{fill:#dcdbdb;}.cls-112{fill:#bababa;}.cls-113{fill:#b9b9b9;}.cls-114{fill:#d9d8d7;}.cls-115{fill:#e3e3e0;}.cls-116{fill:#e8e6e5;}.cls-117{fill:#ebeae9;}.cls-118{fill:#434343;}.cls-119{fill:#676767;}.cls-120{fill:#838383;}.cls-121{fill:#908f8f;}.cls-122{fill:#0d0e0e;}.cls-123{fill:#1a1a1a;}.cls-124{fill:#2d2d2c;}.cls-125{fill:#767676;}.cls-126{fill:#c1c0c0;}.cls-127{fill:#191b10;}.cls-128{fill:#849f3c;}.cls-129{fill:#717171;}.cls-130{fill:#3b4320;}.cls-131{fill:#2e341a;}.cls-132{fill:#212515;}.cls-133{fill:#16170f;}.cls-134{fill:#718c3a;}.cls-135{fill:#647e37;}.cls-136{fill:#687632;}.cls-137{fill:#d4d5d2;}.cls-138{fill:#939390;}.cls-139{fill:#8cae3e;}.cls-140{fill:#bed85d;}.cls-141{fill:#adbb6d;}.cls-142{fill:#d9d9d8;}.cls-143{fill:#90aa3c;}.cls-144{fill:#b4d334;}.cls-145{fill:#c7cbb9;}.cls-146{fill:#eeeeed;}.cls-147{fill:#b6c583;}.cls-148{fill:#d2e061;}.cls-149{fill:#d5e273;}.cls-150{fill:#adbd6b;}.cls-151{fill:#dfe1dd;}.cls-152{fill:#b8bea3;}.cls-153{fill:#c9de76;}.cls-154{fill:#bfd968;}.cls-155{fill:#adc73c;}.cls-156{fill:#939393;}.cls-157{fill:#dfdfde;}.cls-158{fill:#a4a4a5;}.cls-159{fill:#747474;}.cls-160{fill:#6f6e6e;}.cls-161{fill:#e8e8e6;}.cls-162{clip-path:url(#clip-path);}.cls-163{fill:#6d818d;}.cls-164,.cls-165{fill:#adbac7;}</style><clipPath id="clip-path" transform="translate(-423.74 -42.74)"><circle class="cls-1" cx="824.7" cy="184.92" r="94.6"/></clipPath></defs><title>Vector_Raster</title><path class="cls-2" d="M686.31,46.1V43.5h14.52v2.17a32.6,32.6,0,0,0-4.23,6.07,35,35,0,0,0-3.25,7.8,33.19,33.19,0,0,0-1.08,6.18h-2.82a22.46,22.46,0,0,1,1.08-6.39,45.69,45.69,0,0,1,2.82-7.26,27.64,27.64,0,0,1,4-5.85H686.31Z" transform="translate(-423.74 -42.74)"/><path class="cls-2" d="M702.46,65.71l6-8.45-5.53-7.8h3.47l2.49,3.79a19.6,19.6,0,0,1,1.08,1.84c.43-.65.87-1.3,1.19-1.84l2.71-3.9h3.25L711.45,57l6.07,8.67h-3.36l-3.36-5.09-.87-1.41L705.6,65.6h-3.14Z" transform="translate(-423.74 -42.74)"/><path class="cls-2" d="M729,65.71V43.17h4.44l5.31,15.93c.54,1.52.87,2.6,1.08,3.36.22-.87.65-2.06,1.19-3.58l5.42-15.6h4V65.82h-2.82v-19l-6.5,18.86h-2.71l-6.5-19.18V65.71Z" transform="translate(-423.74 -42.74)"/><path class="cls-2" d="M765.64,63.65a10,10,0,0,1-2.93,1.84,9.4,9.4,0,0,1-3,.54,5.87,5.87,0,0,1-4.12-1.3,4.19,4.19,0,0,1-1.41-3.36,4.93,4.93,0,0,1,.54-2.17,5.1,5.1,0,0,1,1.41-1.63,6.32,6.32,0,0,1,2-.87,22.42,22.42,0,0,1,2.49-.43,17.12,17.12,0,0,0,4.88-1v-.76a3,3,0,0,0-.76-2.38,4.55,4.55,0,0,0-3.14-1,5.32,5.32,0,0,0-2.93.65,4.26,4.26,0,0,0-1.41,2.38l-2.71-.33a6.72,6.72,0,0,1,1.19-2.82,4.59,4.59,0,0,1,2.49-1.63,9.77,9.77,0,0,1,3.68-.54,9.45,9.45,0,0,1,3.36.54,5.47,5.47,0,0,1,2,1.19,4.84,4.84,0,0,1,.87,1.84,14.71,14.71,0,0,1,.11,2.6v3.68a37.17,37.17,0,0,0,.22,4.88,6.89,6.89,0,0,0,.65,2h-2.82A3.74,3.74,0,0,1,765.64,63.65Zm-.33-6.18a20,20,0,0,1-4.55,1.08,13.33,13.33,0,0,0-2.38.54,3,3,0,0,0-1.08.87,3.08,3.08,0,0,0-.43,1.3,2.48,2.48,0,0,0,.87,1.84,3.44,3.44,0,0,0,2.49.76,5.7,5.7,0,0,0,2.82-.65,4,4,0,0,0,1.84-2,6.14,6.14,0,0,0,.43-2.71V57.48Z" transform="translate(-423.74 -42.74)"/><path class="cls-2" d="M771.92,67l2.71.43a2.57,2.57,0,0,0,1,1.84,4.36,4.36,0,0,0,2.82.76,4.5,4.5,0,0,0,2.93-.76,3.82,3.82,0,0,0,1.41-2.17,21.27,21.27,0,0,0,.22-3.58,5.75,5.75,0,0,1-4.55,2.17,6,6,0,0,1-5.2-2.38,9.66,9.66,0,0,1-1.84-5.85,11.46,11.46,0,0,1,.87-4.33,6.88,6.88,0,0,1,2.49-3A6.26,6.26,0,0,1,778.53,49a5.75,5.75,0,0,1,4.77,2.38V49.35h2.6V63.44a13.33,13.33,0,0,1-.76,5.42,5.54,5.54,0,0,1-2.49,2.49,8,8,0,0,1-4.12.87,7.66,7.66,0,0,1-4.66-1.3A4.16,4.16,0,0,1,771.92,67Zm2.28-9.75c0,2.17.43,3.68,1.3,4.66a4.17,4.17,0,0,0,3.14,1.52,3.85,3.85,0,0,0,3.14-1.52,6.71,6.71,0,0,0,1.3-4.55,7.11,7.11,0,0,0-1.3-4.55,3.9,3.9,0,0,0-3.25-1.52,4.17,4.17,0,0,0-3.14,1.52A7,7,0,0,0,774.2,57.26Z" transform="translate(-423.74 -42.74)"/><path class="cls-2" d="M789.91,65.71V49.46h2.49v2.28A5.77,5.77,0,0,1,797.6,49a7.55,7.55,0,0,1,2.71.54A4.18,4.18,0,0,1,802.16,51,5.91,5.91,0,0,1,803,53a16.94,16.94,0,0,1,.11,2.71v10h-2.71V55.85a7.27,7.27,0,0,0-.33-2.49,2.31,2.31,0,0,0-1.19-1.3,3.74,3.74,0,0,0-2-.54,4.35,4.35,0,0,0-3,1.08q-1.3,1.14-1.3,4.23v8.89Z" transform="translate(-423.74 -42.74)"/><path class="cls-2" d="M807.36,46.31V43.17h2.71v3.14Zm0,19.4V49.46h2.71V65.71Z" transform="translate(-423.74 -42.74)"/><path class="cls-2" d="M815.05,65.71V51.52h-2.49V49.35h2.49V47.62a7.28,7.28,0,0,1,.33-2.49,3.17,3.17,0,0,1,1.41-1.73,5.16,5.16,0,0,1,2.82-.65,12.15,12.15,0,0,1,2.6.33l-.43,2.38a8.2,8.2,0,0,0-1.63-.11,2.35,2.35,0,0,0-1.73.54,2.93,2.93,0,0,0-.54,2.06v1.52H821v2.17h-3.14v14.2h-2.82Z" transform="translate(-423.74 -42.74)"/><path class="cls-2" d="M823.07,46.31V43.17h2.71v3.14Zm0,19.4V49.46h2.71V65.71Z" transform="translate(-423.74 -42.74)"/><path class="cls-2" d="M840.73,59.64l2.71.33a7.63,7.63,0,0,1-2.28,4.44A6.51,6.51,0,0,1,836.62,66a7.26,7.26,0,0,1-5.42-2.17c-1.41-1.41-2.06-3.58-2.06-6.29a12.74,12.74,0,0,1,.87-4.66A5.52,5.52,0,0,1,832.71,50a8,8,0,0,1,3.9-1,6.88,6.88,0,0,1,4.33,1.3,6.33,6.33,0,0,1,2.17,3.79l-2.71.43A4.35,4.35,0,0,0,839,52.06a3.22,3.22,0,0,0-2.28-.76,4.28,4.28,0,0,0-3.36,1.52c-.87,1-1.3,2.6-1.3,4.77s.43,3.79,1.3,4.77a4.22,4.22,0,0,0,3.25,1.52,4,4,0,0,0,2.71-1A5.64,5.64,0,0,0,840.73,59.64Z" transform="translate(-423.74 -42.74)"/><path class="cls-2" d="M856.45,63.65a10,10,0,0,1-2.93,1.84,9.4,9.4,0,0,1-3,.54,5.87,5.87,0,0,1-4.12-1.3A4.19,4.19,0,0,1,845,61.38a4.93,4.93,0,0,1,.54-2.17,5.1,5.1,0,0,1,1.41-1.63,6.32,6.32,0,0,1,2-.87,22.42,22.42,0,0,1,2.49-.43,17.12,17.12,0,0,0,4.88-1v-.76a3,3,0,0,0-.76-2.38,4.55,4.55,0,0,0-3.14-1,5.32,5.32,0,0,0-2.93.65A4.26,4.26,0,0,0,848,54.23l-2.71-.33a6.72,6.72,0,0,1,1.19-2.82A4.59,4.59,0,0,1,849,49.46a9.77,9.77,0,0,1,3.68-.54,9.45,9.45,0,0,1,3.36.54,5.47,5.47,0,0,1,2,1.19,4.84,4.84,0,0,1,.87,1.84,14.71,14.71,0,0,1,.11,2.6v3.68a37.16,37.16,0,0,0,.22,4.88,6.89,6.89,0,0,0,.65,2h-2.93A8.7,8.7,0,0,1,856.45,63.65Zm-.22-6.18a20,20,0,0,1-4.55,1.08,13.33,13.33,0,0,0-2.38.54,3,3,0,0,0-1.08.87,3.08,3.08,0,0,0-.43,1.3,2.48,2.48,0,0,0,.87,1.84,3.44,3.44,0,0,0,2.49.76,5.7,5.7,0,0,0,2.82-.65,4,4,0,0,0,1.84-2,6.14,6.14,0,0,0,.43-2.71V57.48Z" transform="translate(-423.74 -42.74)"/><path class="cls-2" d="M869.34,63.22l.43,2.49a7.39,7.39,0,0,1-2.06.22,5.22,5.22,0,0,1-2.38-.43,2.31,2.31,0,0,1-1.19-1.3,10.42,10.42,0,0,1-.33-3.25V51.52h-2.06V49.35h2.06v-4l2.71-1.63v5.74h2.82v2.17h-2.82v9.43a4.93,4.93,0,0,0,.11,1.52,1.08,1.08,0,0,0,.43.54,2.16,2.16,0,0,0,1,.22C868.37,63.33,868.8,63.22,869.34,63.22Z" transform="translate(-423.74 -42.74)"/><path class="cls-2" d="M872.05,46.31V43.17h2.71v3.14Zm0,19.4V49.46h2.71V65.71Z" transform="translate(-423.74 -42.74)"/><path class="cls-2" d="M878,57.48c0-3,.87-5.2,2.49-6.72a7.73,7.73,0,0,1,5.09-1.84,7.51,7.51,0,0,1,5.53,2.17,8.47,8.47,0,0,1,2.17,6.07,10.72,10.72,0,0,1-1,5A6.79,6.79,0,0,1,889.61,65a8,8,0,0,1-3.9,1,7.51,7.51,0,0,1-5.53-2.17C878.77,62.35,878,60.29,878,57.48Zm2.82,0c0,2.06.43,3.68,1.41,4.66a4.17,4.17,0,0,0,3.47,1.52,4.67,4.67,0,0,0,3.47-1.52,7.35,7.35,0,0,0,1.41-4.77c0-2.06-.43-3.58-1.41-4.55a4.17,4.17,0,0,0-3.47-1.52,4.67,4.67,0,0,0-3.47,1.52A6.66,6.66,0,0,0,880.83,57.48Z" transform="translate(-423.74 -42.74)"/><path class="cls-2" d="M896.43,65.71V49.46h2.49v2.28a5.77,5.77,0,0,1,5.2-2.71,7.55,7.55,0,0,1,2.71.54A4.18,4.18,0,0,1,908.68,51a5.91,5.91,0,0,1,.87,2.06,16.94,16.94,0,0,1,.11,2.71v10h-2.71V55.85a7.28,7.28,0,0,0-.33-2.49,2.31,2.31,0,0,0-1.19-1.3,3.74,3.74,0,0,0-2-.54,4.35,4.35,0,0,0-3,1.08q-1.3,1.14-1.3,4.23v8.89Z" transform="translate(-423.74 -42.74)"/><path class="cls-2" d="M664.42,151.21l-7.48-19.4h2.82l5.09,14.09a20.64,20.64,0,0,1,1,3.14,26.76,26.76,0,0,1,1.08-3.14l5.2-14.09h2.6l-7.59,19.4Z" transform="translate(-423.74 -42.74)"/><path class="cls-2" d="M684.79,146.66l2.49.33a6.09,6.09,0,0,1-2.17,3.36,6.76,6.76,0,0,1-4,1.19,6.29,6.29,0,0,1-4.88-2,7.52,7.52,0,0,1-1.84-5.31,7.9,7.9,0,0,1,1.84-5.53,6.21,6.21,0,0,1,4.77-2,5.9,5.9,0,0,1,4.55,2,7.58,7.58,0,0,1,1.73,5.42v.65H676.77a5.92,5.92,0,0,0,1.3,3.58,3.62,3.62,0,0,0,2.93,1.19,4,4,0,0,0,2.28-.65A6,6,0,0,0,684.79,146.66Zm-7.8-3.79h7.8a5.7,5.7,0,0,0-.87-2.71,3.81,3.81,0,0,0-2.93-1.41,3.44,3.44,0,0,0-2.71,1.08A3.78,3.78,0,0,0,677,142.87Z" transform="translate(-423.74 -42.74)"/><path class="cls-2" d="M699.42,146l2.38.33a5.62,5.62,0,0,1-2,3.79,6.14,6.14,0,0,1-3.9,1.41,6.28,6.28,0,0,1-4.66-1.84,7.58,7.58,0,0,1-1.73-5.42,9.46,9.46,0,0,1,.76-4,6,6,0,0,1,2.28-2.6,7,7,0,0,1,3.36-.87,6.1,6.1,0,0,1,3.79,1.19,4.92,4.92,0,0,1,1.84,3.25l-2.28.33a4.2,4.2,0,0,0-1.19-2.17,3.18,3.18,0,0,0-2.06-.76,3.71,3.71,0,0,0-2.93,1.3c-.76.87-1.08,2.17-1.08,4.12a6.24,6.24,0,0,0,1.08,4.12,3.49,3.49,0,0,0,2.82,1.3,3.57,3.57,0,0,0,2.38-.87A4.48,4.48,0,0,0,699.42,146Z" transform="translate(-423.74 -42.74)"/><path class="cls-2" d="M709,149l.33,2.06a12.07,12.07,0,0,1-1.84.22,3.87,3.87,0,0,1-2.06-.43,2.3,2.3,0,0,1-1-1.08,7.76,7.76,0,0,1-.33-2.82v-8.13h-1.73V137h1.73v-3.36l2.38-1.41v4.88h2.38V139h-2.28v8.24a3.74,3.74,0,0,0,.11,1.3.85.85,0,0,0,.43.43,1.68,1.68,0,0,0,.87.22A3.73,3.73,0,0,0,709,149Z" transform="translate(-423.74 -42.74)"/><path class="cls-2" d="M710.37,144.17c0-2.6.76-4.55,2.17-5.74a7,7,0,0,1,9.21.43,7.43,7.43,0,0,1,1.84,5.2,8.79,8.79,0,0,1-.87,4.23,5.09,5.09,0,0,1-2.38,2.38,7.38,7.38,0,0,1-3.36.87,6.54,6.54,0,0,1-4.77-1.84A7.9,7.9,0,0,1,710.37,144.17Zm2.49,0a5.9,5.9,0,0,0,1.19,4,3.94,3.94,0,0,0,5.85,0,6.22,6.22,0,0,0,1.19-4.12,5.78,5.78,0,0,0-1.19-3.9,3.94,3.94,0,0,0-5.85,0A5.9,5.9,0,0,0,712.86,144.17Z" transform="translate(-423.74 -42.74)"/><path class="cls-2" d="M726.3,151.21V137.13h2.17v2.17a6.35,6.35,0,0,1,1.52-2,2.49,2.49,0,0,1,1.52-.43,4.71,4.71,0,0,1,2.49.76l-.87,2.17a3.6,3.6,0,0,0-1.73-.54,2.26,2.26,0,0,0-2.28,1.73,11,11,0,0,0-.43,2.82v7.37Z" transform="translate(-423.74 -42.74)"/><path class="cls-2" d="M651.31,466.13v-19.4h7.26a10.33,10.33,0,0,1,3.58.54,4.27,4.27,0,0,1,2.06,1.84,4.55,4.55,0,0,1,.76,2.6,4.64,4.64,0,0,1-.65,2.38,4.14,4.14,0,0,1-2.06,1.73,5.36,5.36,0,0,1,2.71,1.73,4.75,4.75,0,0,1,1,2.93,6.43,6.43,0,0,1-.54,2.49,6.35,6.35,0,0,1-1.41,1.84,5.73,5.73,0,0,1-2.17,1,12.72,12.72,0,0,1-3.14.33h-7.37ZM653.8,455H658a13.16,13.16,0,0,0,2.49-.22,3.08,3.08,0,0,0,1.52-1,2.76,2.76,0,0,0,.54-1.73,3.18,3.18,0,0,0-.43-1.73,1.93,1.93,0,0,0-1.3-1,8.93,8.93,0,0,0-2.93-.33H654v6Zm0,8.89h4.88a6.74,6.74,0,0,0,1.73-.11,6.27,6.27,0,0,0,1.52-.54,2.37,2.37,0,0,0,1-1.08,3.59,3.59,0,0,0,.43-1.63,3.36,3.36,0,0,0-.54-1.84,2.64,2.64,0,0,0-1.52-1.08,9.54,9.54,0,0,0-2.82-.33H654v6.61Z" transform="translate(-423.74 -42.74)"/><path class="cls-2" d="M669.19,449.55v-2.71h2.38v2.71Zm0,16.58V452h2.38v14.09Z" transform="translate(-423.74 -42.74)"/><path class="cls-2" d="M680.35,464.07l.33,2.06a12.07,12.07,0,0,1-1.84.22,3.87,3.87,0,0,1-2.06-.43,2.3,2.3,0,0,1-1-1.08,7.76,7.76,0,0,1-.33-2.82v-8.13h-1.73V452h1.73v-3.47l2.38-1.41V452h2.38v1.84h-2.38v8.24a3.74,3.74,0,0,0,.11,1.3.85.85,0,0,0,.43.43,1.68,1.68,0,0,0,.87.22A3.61,3.61,0,0,0,680.35,464.07Z" transform="translate(-423.74 -42.74)"/><path class="cls-2" d="M682.73,466.13V452h2.17v2a5,5,0,0,1,1.73-1.63,4.75,4.75,0,0,1,2.49-.65,4.88,4.88,0,0,1,2.6.65,4,4,0,0,1,1.41,1.84,5.13,5.13,0,0,1,4.33-2.49,4.42,4.42,0,0,1,3.25,1.19,4.88,4.88,0,0,1,1.08,3.58v9.64h-2.38v-8.89a8.4,8.4,0,0,0-.22-2.06,1.54,1.54,0,0,0-.87-1,3.07,3.07,0,0,0-1.41-.43,3.43,3.43,0,0,0-2.49,1,4.37,4.37,0,0,0-1,3.14V466h-2.38v-9.1a4.55,4.55,0,0,0-.54-2.38,2.19,2.19,0,0,0-2-.76,3.65,3.65,0,0,0-1.84.54,2.8,2.8,0,0,0-1.19,1.52,9.25,9.25,0,0,0-.43,2.93V466h-2.38Z" transform="translate(-423.74 -42.74)"/><path class="cls-2" d="M714.38,464.4a9.7,9.7,0,0,1-2.49,1.63,7.29,7.29,0,0,1-2.6.43,5.23,5.23,0,0,1-3.58-1.08,3.62,3.62,0,0,1-1.19-2.93,3.56,3.56,0,0,1,.43-1.84,7.46,7.46,0,0,1,1.19-1.41,5,5,0,0,1,1.73-.76,19.26,19.26,0,0,1,2.17-.33,18.59,18.59,0,0,0,4.23-.87v-.65a2.76,2.76,0,0,0-.65-2.06,4,4,0,0,0-2.71-.76,5,5,0,0,0-2.49.54,3.49,3.49,0,0,0-1.19,2.06l-2.28-.33a4.87,4.87,0,0,1,1.08-2.38,4.13,4.13,0,0,1,2.06-1.41,9.06,9.06,0,0,1,3.14-.54,7.58,7.58,0,0,1,2.93.43,3.86,3.86,0,0,1,1.63,1.08,3.77,3.77,0,0,1,.76,1.63,10.63,10.63,0,0,1,.11,2.17v3.14a37.58,37.58,0,0,0,.11,4.23,5.67,5.67,0,0,0,.65,1.73h-2.49A6.54,6.54,0,0,1,714.38,464.4Zm-.11-5.31a17.74,17.74,0,0,1-3.9.87,12.77,12.77,0,0,0-2.06.43,1.73,1.73,0,0,0-1,.76,2.09,2.09,0,0,0-.33,1.08,2,2,0,0,0,.76,1.63,2.93,2.93,0,0,0,2.06.65,5,5,0,0,0,2.49-.65,4.67,4.67,0,0,0,1.63-1.63,6.22,6.22,0,0,0,.43-2.38v-.76Z" transform="translate(-423.74 -42.74)"/><path class="cls-2" d="M720.34,471.55v-19.4h2.17V454a4.87,4.87,0,0,1,1.73-1.63,5.54,5.54,0,0,1,5.53.43,6.14,6.14,0,0,1,2.06,2.6,10.12,10.12,0,0,1,.65,3.68,9.29,9.29,0,0,1-.76,3.9,5.41,5.41,0,0,1-2.28,2.6,5.53,5.53,0,0,1-3.14.87,4.93,4.93,0,0,1-2.17-.54,3.6,3.6,0,0,1-1.52-1.3v6.83h-2.28Zm2.17-12.35a5.91,5.91,0,0,0,1.08,4,3.47,3.47,0,0,0,5.42,0,6.24,6.24,0,0,0,1.08-4.12,5.91,5.91,0,0,0-1.08-4,3.28,3.28,0,0,0-5.31.11A5.56,5.56,0,0,0,722.51,459.19Z" transform="translate(-423.74 -42.74)"/><path id="path18" class="cls-3" d="M469.25,47.62a58.29,58.29,0,0,1,27.31-2c-2.6-.22-5.2-.22-7.91-.22-1.63.22-3.36,0-4.77,1-1.73,1.52-.65,4-.65,6-.76.76-1.41,1.52-2.17,2.28l4.66.33c.43,0,1.41.11,2,.11a83.43,83.43,0,0,0,10.4.33c.54-.11,1.73-.22,2.28-.33,2.38-2,5.09-5.64,8.45-3.25.65,2.71.22,5.53,0,8.24A11.11,11.11,0,0,1,500.35,58c1.84.33,3.79.65,5.64.87-.11-1.41-.11-2.82-.22-4.23-2.49,1-5,2-7.59,2.71h-.76c-1.73-.22-3.36-.43-5.09-.54-2.49-.11-5.09-.11-7.69-.33a37.7,37.7,0,0,0-17,1.73l-.65-1a5.34,5.34,0,0,0,1.3-3.9A48.84,48.84,0,0,1,469.25,47.62Z" transform="translate(-423.74 -42.74)"/><path id="path22" class="cls-4" d="M483.88,46.42c1.41-.87,3.14-.76,4.77-1a29.72,29.72,0,0,1-3,9.54L481,54.66c.76-.76,1.41-1.52,2.17-2.28C483.23,50.43,482.15,47.94,483.88,46.42Z" transform="translate(-423.74 -42.74)"/><path id="path24" class="cls-5" d="M488.65,45.45c2.6,0,5.2,0,7.91.22l1,.11c-3.14,3.25-4.23,9.86-10,9.32-.43,0-1.41-.11-2-.11A27.27,27.27,0,0,0,488.65,45.45Z" transform="translate(-423.74 -42.74)"/><path id="path26" class="cls-6" d="M497.54,45.77c2.17.33,4.33.76,6.61,1.08-2.49,2.49-5.31,5-6.07,8.56a83.43,83.43,0,0,1-10.4-.33C493.2,55.63,494.39,49.13,497.54,45.77Z" transform="translate(-423.74 -42.74)"/><path id="path28" class="cls-7" d="M504.15,47c5.09-.22,6.39,5,8.67,8.34-1.3,3.58-3.47,6.72-7.26,8.13.65.76,1.19,1.63,1.73,2.38-1.52-.22-3-.54-4.55-.76a6.63,6.63,0,0,1,.54-1.3c-1.19-1.52-3.36-.43-4.66.33a21.11,21.11,0,0,1-2.49-.65c.22-.22.76-.54,1-.76.11-1.73.22-3.47.22-5.2l.76.11a16.46,16.46,0,0,1,2.17.65,12.25,12.25,0,0,0,8.45,2.06c.22-2.71.65-5.53,0-8.24-3.36-2.49-6.07,1.3-8.45,3.25-.54.11-1.73.22-2.28.33C498.84,51.84,501.65,49.46,504.15,47Z" transform="translate(-423.74 -42.74)"/><path id="path30" class="cls-8" d="M464.16,51.41c.65-2.28,3.14-3,5.09-3.79-.33,2-.76,3.79-1,5.74-2.71-1.08-3.25,2.71-1.3,3.9l.65,1c-1.84.87-3.68,1.84-5.53,2.71C461,57.58,463,54.44,464.16,51.41Z" transform="translate(-423.74 -42.74)"/><path id="path52" class="cls-9" d="M485.61,50.54C489.19,50.76,484,53.79,485.61,50.54Z" transform="translate(-423.74 -42.74)"/><path id="path56" class="cls-10" d="M473.69,51.41c1.63-1.3,3,1.73,1.63,2.82C473.69,55.42,472.29,52.49,473.69,51.41Z" transform="translate(-423.74 -42.74)"/><path id="path58" class="cls-11" d="M478,51.52C481.5,51.62,476.4,54.88,478,51.52Z" transform="translate(-423.74 -42.74)"/><path id="path64" class="cls-12" d="M470.55,52.82C474.13,53,468.82,56.07,470.55,52.82Z" transform="translate(-423.74 -42.74)"/><path id="path66" class="cls-13" d="M467,57.26c-2-1.19-1.41-5,1.3-3.9A6.05,6.05,0,0,1,467,57.26Z" transform="translate(-423.74 -42.74)"/><path id="path68" class="cls-14" d="M498.08,57.58c2.6-.76,5.09-1.73,7.59-2.71.11,1.41.11,2.82.22,4.23-1.84-.33-3.79-.54-5.64-.87A16.46,16.46,0,0,0,498.08,57.58Z" transform="translate(-423.74 -42.74)"/><path id="path70" class="cls-15" d="M505.55,63.44c3.79-1.3,5.85-4.55,7.26-8.13,1,2.06.65,4.33.65,6.5-.65.76-1.19,1.52-1.84,2.38.33.54.87,1.73,1.19,2.38-2.93,1.08-5.74,2.28-8.56,3.47,1,1,2,2,3,2.93-2.93-.54-5.85-1.19-8.67-2l2.28.33.65-1.63c-2.28,2.06-5.2,0-7.8-.11.65-.33,1.84-.76,2.49-1.08C495,66.69,494,65,492.77,63.11c.87.11,2.6.22,3.47.33a21.11,21.11,0,0,1,2.49.65,28.34,28.34,0,0,0,4.12,1c1.52.22,3,.54,4.55.76C506.75,65,506.2,64.2,505.55,63.44Z" transform="translate(-423.74 -42.74)"/><path id="path72" class="cls-16" d="M475.21,57.15c1.63-.22,3.36-.33,5-.54v6a19.46,19.46,0,0,1-2.38.22C475.64,61.7,475.75,59.1,475.21,57.15Z" transform="translate(-423.74 -42.74)"/><path id="path74" class="cls-17" d="M480.2,56.61c1.52-.11,3-.11,4.44-.22,0,1.52-.11,3-.11,4.55a54.13,54.13,0,0,0,7.26.11c.11-1.41.33-2.93.43-4.33,1.73.11,3.36.33,5.09.54-.11,1.73-.11,3.47-.22,5.2-5.64,0-11.27-.43-16.91-.11C480.2,60.62,480.2,58.67,480.2,56.61Z" transform="translate(-423.74 -42.74)"/><path id="path76" class="cls-18" d="M484.64,56.5c2.49.22,5.09.22,7.69.33-.11,1.41-.33,2.93-.43,4.33-2.38.11-4.88,0-7.26-.11Z" transform="translate(-423.74 -42.74)"/><path id="path78" class="cls-19" d="M467.08,59.43a34.81,34.81,0,0,1,8.13-2.28c.54,2,.43,4.55,2.6,5.64a49.12,49.12,0,0,0-10.51,2.28C467.19,63.22,467.08,61.27,467.08,59.43Z" transform="translate(-423.74 -42.74)"/><path id="path84" class="cls-20" d="M463,61.05c1.41-.54,2.71-1.08,4.12-1.63.11,1.84.11,3.79.22,5.64A12.78,12.78,0,0,0,463,68c.65-.22,2-.54,2.6-.76.65,1.63,1.41,3.25,2.06,5a11,11,0,0,0-5.42,3.36c2.71-.76,5.2-1.73,7.8-2.6.33,2.49.65,5,.87,7.48-.87.33-2.6.87-3.47,1.08-1.41.54-2.93,1-4.33,1.52a22.7,22.7,0,0,0-1.52-1.84l-1.63-7.15c.87-2,1.73-3.79,2.71-5.64C461,65.93,460.91,63.22,463,61.05Z" transform="translate(-423.74 -42.74)"/><path id="path86" class="cls-21" d="M477.81,62.79a19.46,19.46,0,0,1,2.38-.22c5.64-.43,11.27,0,16.91.11-.22.22-.76.54-1,.76-.87-.11-2.6-.22-3.47-.33a77.14,77.14,0,0,0-13.22.54c-.22.87-.65,2.6-1,3.47V63.44c-2.17.54-4.33,1.19-6.5,1.73,0,1-.11,3-.11,4.12-.22-1.3-.43-2.71-.65-4-2,.65-3.9,1.41-5.85,2.06-.65.22-2,.54-2.6.76a14.57,14.57,0,0,1,4.33-2.93A47.72,47.72,0,0,1,477.81,62.79Z" transform="translate(-423.74 -42.74)"/><path id="path88" class="cls-22" d="M479.55,63.55A76.69,76.69,0,0,1,492.77,63c1.19,1.84,2.28,3.58,3.47,5.42a24.79,24.79,0,0,0-2.49,1.08c-5.53,0-11.05-.76-16.47.33a12.87,12.87,0,0,0,1.41-2.71A34.51,34.51,0,0,1,479.55,63.55Z" transform="translate(-423.74 -42.74)"/><path id="path90" class="cls-23" d="M498.62,64c1.3-.65,3.47-1.73,4.66-.33a6.63,6.63,0,0,1-.54,1.3A20.52,20.52,0,0,1,498.62,64Z" transform="translate(-423.74 -42.74)"/><path id="path92" class="cls-24" d="M472.18,65.06c2.17-.54,4.33-1.19,6.5-1.73V67a12.87,12.87,0,0,1-1.41,2.71c-3.14.76-6.39,1.41-9.54,2.28-.65-1.63-1.41-3.25-2.06-5,2-.65,3.9-1.41,5.85-2.06.22,1.3.43,2.71.65,4C472.07,68.1,472.18,66.15,472.18,65.06Z" transform="translate(-423.74 -42.74)"/><path id="path94" class="cls-9" d="M481.39,64.63C485,65,479.55,67.88,481.39,64.63Z" transform="translate(-423.74 -42.74)"/><path id="path96" class="cls-25" d="M474.78,65.6C478.25,65.82,473,68.86,474.78,65.6Z" transform="translate(-423.74 -42.74)"/><path id="path98" class="cls-26" d="M504.25,69.94c2.82-1.19,5.74-2.38,8.56-3.47l.33,3.9.33,1.08c-.54.43-1.63,1.52-2.17,2a18.37,18.37,0,0,1-2.38-.11c-.22.65-.54,1.3-.76,2-2.82,1-5.64,2.17-8.67,2.17A15.22,15.22,0,0,1,488,69.83a36.45,36.45,0,0,1,10.29.87,83,83,0,0,0,8.67,2Z" transform="translate(-423.74 -42.74)"/><path id="path100" class="cls-27" d="M477.16,69.83c5.42-1,10.95-.33,16.47-.33,2.6.11,5.53,2.06,7.8.11l-.65,1.63-2.28-.43a36.45,36.45,0,0,0-10.29-.87,63.16,63.16,0,0,0-6.39.33,58.49,58.49,0,0,0-6.29,1.08c-1.84.43-3.68.87-5.53,1.41-2.6.87-5.2,2-7.8,2.6A11,11,0,0,1,467.63,72C470.77,71.24,474,70.59,477.16,69.83Z" transform="translate(-423.74 -42.74)"/><path id="path102" class="cls-28" d="M475.54,71.46a58.49,58.49,0,0,1,6.29-1.08,32,32,0,0,0,4.77,8.34q-4.39,0-8.78.33C477.05,76.44,476.3,73.95,475.54,71.46Z" transform="translate(-423.74 -42.74)"/><path id="path104" class="cls-29" d="M481.82,70.37a63.16,63.16,0,0,1,6.39-.33,15,15,0,0,0,11.49,7.59c3,0,5.85-1.19,8.67-2.17.22-.65.54-1.3.76-2a18.37,18.37,0,0,1,2.38.11c.54-.43,1.63-1.52,2.17-2,1.84,3.68.54,7.69-1.3,11.05a6.47,6.47,0,0,1-1.19-.65,8.17,8.17,0,0,1-1.41-.65c-7.37-3-15.5-2.38-23.19-2.82A32.7,32.7,0,0,1,481.82,70.37Z" transform="translate(-423.74 -42.74)"/><path id="path106" class="cls-30" d="M470,72.86c1.84-.54,3.68-1,5.53-1.41.76,2.49,1.52,5.09,2.28,7.59a37.49,37.49,0,0,0-6.94,1.41C470.66,77.85,470.33,75.36,470,72.86Z" transform="translate(-423.74 -42.74)"/><path id="path108" class="cls-31" d="M470.88,80.34a49.14,49.14,0,0,1,6.94-1.41q4.39-.33,8.78-.33c7.69.43,15.71-.33,23.08,2.71-7.91,5.64-18.1,5.53-27.42,5-5.31-.33-10.73-1.3-14.85-4.88C468.28,81.21,470,80.67,470.88,80.34Z" transform="translate(-423.74 -42.74)"/><path id="path110" class="cls-32" d="M461.67,81.21a22.7,22.7,0,0,0,1.52,1.84l2,2.6c-3.14,16.26-4.66,32.73-6.29,49.2-.22,1.3-.43,2.6-.54,3.9-2.06,7-.87,14.74-3.68,21.67,1.41-19.72,3.14-39.55,5.74-59.17C460.91,94.65,463.72,87.93,461.67,81.21Z" transform="translate(-423.74 -42.74)"/><path id="path112" class="cls-33" d="M463.07,83.05c1.41-.54,2.93-1.08,4.33-1.52,4.12,3.58,9.64,4.55,14.85,4.88,9.32.43,19.4.54,27.42-5a8.17,8.17,0,0,1,1.41.65,21.74,21.74,0,0,0-1.73,8.67c-.76-1.52-1.08-3.79-3-4.23-8,3.14-16.8,3.14-25.36,2.71a58,58,0,0,1-16-3.36A9.74,9.74,0,0,0,463.07,83.05Z" transform="translate(-423.74 -42.74)"/><path id="path114" class="cls-32" d="M511.19,82c.33.22.87.43,1.19.65-.65,2.17-1.41,4.33-.87,6.61,1,6.18,2.06,12.46,3,18.64,3,17.34,3.79,35,6.72,52.34-4.33-9.43-2.93-20-5-30a12.27,12.27,0,0,1-1.08-1.41v-.11c-1.41-12.79-3.68-25.47-5.74-38.15A21.22,21.22,0,0,1,511.19,82Z" transform="translate(-423.74 -42.74)"/><path id="path116" class="cls-34" d="M465.13,85.65a58,58,0,0,0,16,3.36c8.56.43,17.34.43,25.36-2.71a127.91,127.91,0,0,1,1.73,20.26c.54,7.26,1.3,14.52,1.19,21.78a215.11,215.11,0,0,0-45,0l-3.79.33c-.65,2.06-1.3,4.12-1.84,6.18C460.37,118.38,462,101.91,465.13,85.65Z" transform="translate(-423.74 -42.74)"/><path id="path118" class="cls-35" d="M506.42,86.3c2,.43,2.17,2.82,3,4.23,2.06,12.68,4.33,25.36,5.74,38.15-2-.11-3.9-.11-5.74-.33.11-7.26-.65-14.52-1.19-21.78A142.28,142.28,0,0,0,506.42,86.3Z" transform="translate(-423.74 -42.74)"/><path id="path130" class="cls-36" d="M464.48,128.35a222.75,222.75,0,0,1,45,0l5.74.33v.11c1.73,13.11,1.08,27.09,7.48,39.12,5.09,9.86,12.25,18.64,17.23,28.5,3,5.85,4.33,12.35,5.64,18.75a69.26,69.26,0,0,1-8.13-1c-2.6-16.47-11.27-32.84-25.79-41.72-12.68-7.8-29.91-9.1-42.59-.87-.87.65-1.84,1.3-2.71,2-5.09,1.84-8.67,6.07-12,10.08-7.15,9.1-10.95,20.26-14.09,31.21-3.47,0-6.94-.11-10.51-.11,3.58-14.74,14-26.44,20.16-40.1l.11-.33a.82.82,0,0,0,.22-.43l.11-.33a58.1,58.1,0,0,0,3-5.74,18.54,18.54,0,0,0,1.52,7.26c2.28-1.84,4.66-3.9,5.2-6.94,1.08-5.74.87-11.6,1.73-17.34C463.07,143.52,462.75,135.83,464.48,128.35Z" transform="translate(-423.74 -42.74)"/><path id="path132" class="cls-37" d="M460.69,128.67l3.79-.33c-1.73,7.48-1.52,15.17-2.38,22.65-1.52-1.19-2.93-2.49-4.44-3.68.33-2.82.43-5.64.54-8.45.22-1.3.43-2.6.54-3.9C459.28,132.79,460,130.73,460.69,128.67Z" transform="translate(-423.74 -42.74)"/><path id="path134" class="cls-38" d="M515.2,128.78a12.27,12.27,0,0,1,1.08,1.41c2,10,.65,20.59,4.77,30.13.65,1.73,1.41,3.36,2.17,5.09,5.2,13.76,16.91,24.27,20.91,38.69,5.53,20.26,6.07,41.5,5,62.31a27.14,27.14,0,0,1-1.08,7.8c-.43-6.39.54-12.68.54-19.07a196.61,196.61,0,0,0-2.93-39.88c-1.3-6.39-2.6-12.9-5.64-18.75-5.09-9.86-12.14-18.64-17.23-28.5C516.28,155.87,516.93,141.89,515.2,128.78Z" transform="translate(-423.74 -42.74)"/><path id="path150" class="cls-39" d="M454.51,160.43c2.82-6.83,1.63-14.52,3.68-21.67-.11,2.82-.22,5.64-.54,8.45a89.69,89.69,0,0,1-4,20.7,58.1,58.1,0,0,1-3,5.74c.43-2,.76-4,1.08-6C452.67,165.41,453.65,162.92,454.51,160.43Z" transform="translate(-423.74 -42.74)"/><path id="path154" class="cls-40" d="M453.54,168a89.69,89.69,0,0,0,4-20.7c1.52,1.3,2.93,2.49,4.44,3.68-.87,5.74-.65,11.6-1.73,17.34-.54,3-2.93,5.09-5.2,6.94A20.71,20.71,0,0,1,453.54,168Z" transform="translate(-423.74 -42.74)"/><path id="path156" class="cls-41" d="M533,385.94a165.36,165.36,0,0,0,3.36,45.62c2,9.75,5.09,19.29,5.42,29.26.33,9-3.9,17.34-9.32,24.17-2.49,3.36-6.83,4.23-10.51,5.74-18.53,6.07-38.8,8-57.76,3.36-5.85-1.3-11.05-4.33-16.26-7.15-3.47-3.68-6.72-7.69-8.67-12.35L439,474a45,45,0,0,1-1.52-10.73c.33-4.33.43-8.67.65-13,.33-6.61,1.84-13.11,2.82-19.72a169.08,169.08,0,0,0,2.28-45l-9.32-109.67a203.13,203.13,0,0,1,6.39-61c3.14-10.95,6.83-22.22,14.09-31.21,3.36-4,6.94-8.34,12-10.08l-1.41,1.3c-2.28,2.06-4.55,4.12-6.61,6.39-.87,1.63-2.06,3.58-1,5.42,1.84,3.47,6,4.44,9.21,5.74,9.21,3,17.34,10.08,27.53,9.1a13,13,0,0,0,13.33-9.43c.22-3.58,0-7.26-1.63-10.51a26.94,26.94,0,0,0-6.39-6.72c-3.36-2.49-7.37-4.55-11.7-3.79-6.18,1-12.57,2-18.75.43,12.68-8.24,30-6.94,42.59.87,14.52,8.89,23.19,25.25,25.79,41.72,2.71,19.07,2.82,38.47,2.49,57.76C536.44,272.59,533,385.94,533,385.94Z" transform="translate(-423.74 -42.74)"/><path id="path158" class="cls-42" d="M523.22,165.3c3,3.9,5.2,8.34,7.91,12.35,5.09,8.13,11.05,15.93,13.87,25.14,6.94,23.52,6,48.33,5,72.61-.65-.43-1.3-.87-2.06-1.3a21.27,21.27,0,0,0,1.08-7.8c1.08-20.81.54-42-5-62.31C540.12,189.68,528.53,179.06,523.22,165.3Z" transform="translate(-423.74 -42.74)"/><path id="path160" class="cls-43" d="M426.45,220c3-19.61,16.8-34.79,25.25-52.12-.43,2-.76,3.9-1.08,6l-.11.33a.82.82,0,0,0-.22.43l-.11.33a47.86,47.86,0,0,0-5,7.26c-5.85,10.29-12.9,20.26-16,31.75a28.62,28.62,0,0,0-.65,6.83l-.33.65a3.44,3.44,0,0,1-.54.65c-1,6.94-2.17,14.09-1.19,21.13v1.52l-1.08-.87-.87-.76A182.52,182.52,0,0,1,426.45,220Z" transform="translate(-423.74 -42.74)"/><path id="path164" class="cls-44" d="M466.33,173.65c.87-.65,1.84-1.3,2.71-2,6.18,1.52,12.57.54,18.75-.43,4.23-.76,8.34,1.3,11.7,3.79-5.2,2.06-10.84,1.08-16.15,1.19-6.07-.33-12.46.87-18.31-1.3Z" transform="translate(-423.74 -42.74)"/><path id="path168" class="cls-45" d="M450.18,174.51a.82.82,0,0,0,.22-.43C450.4,174.19,450.18,174.4,450.18,174.51Z" transform="translate(-423.74 -42.74)"/><path id="path170" class="cls-46" d="M458.41,181.34c2.06-2.28,4.33-4.33,6.61-6.39,5.85,2.17,12.25,1,18.31,1.3,5.42-.11,11.05.87,16.15-1.19a26.94,26.94,0,0,1,6.39,6.72c-4.44,1.63-9.21,1.08-13.87,1.08-9-.11-18-.11-27-.11A19.49,19.49,0,0,1,458.41,181.34Z" transform="translate(-423.74 -42.74)"/><path id="path172" class="cls-47" d="M445,182a47.86,47.86,0,0,1,5-7.26c-6.18,13.65-16.58,25.36-20.16,40.1-.43,1.73-.76,3.36-1.3,5.09a3.61,3.61,0,0,0-.33.65,29.17,29.17,0,0,1,.65-6.83C432.08,202.26,439.13,192.29,445,182Z" transform="translate(-423.74 -42.74)"/><path id="path174" class="cls-48" d="M457.33,186.76c-1-1.84.11-3.79,1-5.42a17.52,17.52,0,0,0,6.61,1.3c9,0,18,0,27,.11,4.66,0,9.43.54,13.87-1.08,1.63,3.25,1.73,6.94,1.63,10.51-6.18-.43-12.46-.33-18.64-.33-7.37.11-14.74-.54-22.11.54C463.29,191.2,459.17,190.12,457.33,186.76Z" transform="translate(-423.74 -42.74)"/><path id="path178" class="cls-49" d="M466.65,192.5c7.37-1.08,14.74-.43,22.11-.54,6.29,0,12.46-.11,18.64.33a12.91,12.91,0,0,1-13.33,9.43C484,202.58,475.75,195.54,466.65,192.5Z" transform="translate(-423.74 -42.74)"/><path id="path200" class="cls-50" d="M537.52,214.18q4.06.65,8.13,1c2.49,13.11,3,26.55,2.93,39.88,0,6.39-1,12.68-.54,19.07a15.89,15.89,0,0,0-8-2.17C540.34,252.75,540.23,233.36,537.52,214.18Z" transform="translate(-423.74 -42.74)"/><path id="path202" class="cls-50" d="M429.81,214.83c3.47,0,6.94.11,10.51.11a203.13,203.13,0,0,0-6.39,61l-.33.33c-2.6.22-5.2.33-7.69.33v-.65c.87-10.4.43-20.91.33-31.43V243A210.61,210.61,0,0,0,428,221.22l.33-.65a3.61,3.61,0,0,0,.33-.65C429,218.29,429.48,216.56,429.81,214.83Z" transform="translate(-423.74 -42.74)"/><path id="path204" class="cls-47" d="M427.42,221.87a3.44,3.44,0,0,0,.54-.65A210.61,210.61,0,0,1,426.23,243C425.25,236,426.45,228.8,427.42,221.87Z" transform="translate(-423.74 -42.74)"/><path id="path208" class="cls-51" d="M423.74,242.57l.76.54.54.43c.22,10.62,0,21.35,0,32l-1.3-.54Z" transform="translate(-423.74 -42.74)"/><path id="path210" class="cls-38" d="M425,243.65l1.08.87c0,10.51.54,21-.33,31.43-.22-.11-.54-.22-.76-.33C425,264.89,425.25,254.27,425,243.65Z" transform="translate(-423.74 -42.74)"/><path id="path224" class="cls-52" d="M423.74,275l1.41.65c.22.11.54.22.76.33v.65c-.22,2.38-.33,4.88-.33,7.37l-.65-.87a18.53,18.53,0,0,1-1.19-1.52Z" transform="translate(-423.74 -42.74)"/><path id="path246" class="cls-32" d="M424.93,283l.65.87a4.61,4.61,0,0,1,.22,1.19c1.73,13,1.84,26.22,3,39.34,1,18.42,2.6,36.84,3.58,55.27.33,16.8.22,33.81-2.82,50.39l-.54-2a285.29,285.29,0,0,0,1.52-59.28C429.26,340.1,425.58,311.71,424.93,283Z" transform="translate(-423.74 -42.74)"/><path id="path336" class="cls-53" d="M548,274.1l2.06,1.3-1.73,24.17c-.54,6.61-.22,13.33-1.19,19.94-1.41,6.07-.11,12.46-2.49,18.31.33-12.46,1.63-24.82,2-37.28Z" transform="translate(-423.74 -42.74)"/><path id="path378" class="cls-54" d="M509.56,308.35Z" transform="translate(-423.74 -42.74)"/><path id="path392" class="cls-55" d="M542.07,379c.33-8.78,1.19-17.45,1.52-26.12a67.45,67.45,0,0,0,1-14.74v-.22c2.38-5.85,1-12.25,2.49-18.31-1,32.29-6.07,64.48-4.44,96.88.43,4.88,2.06,9.54,2.28,14.52-6-16.36-2.82-34.14-3-51.15Z" transform="translate(-423.74 -42.74)"/><path id="path434" class="cls-56" d="M544.57,338.15a74.36,74.36,0,0,1-1,14.74C544,348,544.13,343,544.57,338.15Z" transform="translate(-423.74 -42.74)"/><path id="path486" class="cls-47" d="M433.6,386c.33,17.77-.54,35.87-4.66,53.21-1.41,5.74-1.3,11.7-3.14,17.34-.22-9.1,2.28-17.88,3.9-26.66,3-16.58,3.14-33.59,2.82-50.39l.87-.11c0,2.06,0,4.12.11,6.18Z" transform="translate(-423.74 -42.74)"/><path id="path490" class="cls-38" d="M540.77,385.83c0-2.17,0-4.33.11-6.5l.87.43c.33,17-2.82,34.68,3,51.15v.22c1.19,11.38,4.23,22.54,4,34.14,0,9.32-1.41,19-5.74,27.31l.33-1.63c.76-4.23,2.71-8.24,3.36-12.57,3.14-17-.76-34.14-4.12-50.82-3.47-13.55-2.17-27.53-2-41.29Z" transform="translate(-423.74 -42.74)"/><path id="path580" class="cls-42" d="M423.74,457.13c1.73-9.75,2.71-19.51,5.31-29l.54,2c-1.52,8.89-4,17.66-3.9,26.66l-.11.76c-1.3,8.13-1.08,16.91,1.63,24.82l.65.65.33.65c.11,4.77,2.93,8.78,5.85,12.35l2.93,4.23c-8.34-6-10.73-16.47-13.22-25.68Z" transform="translate(-423.74 -42.74)"/><path id="path590" class="cls-43" d="M544.89,431.13c2.17,5.31,2.71,11.05,3.68,16.58,2.06,13.76,2.38,28.28-2.71,41.4-1.63,5.2-5.74,9.21-10,12.46-10.08,7.59-22.76,10.4-35.11,11.7-15.93.76-32.4,1-47.68-4.23-5.53-2.06-11.16-4.44-15.6-8.56,4.66,2.17,9.21,4.88,14.09,6.5a6.84,6.84,0,0,0,4.66,1.84c16.58,4,34,5.53,50.93,2.82,10.95-1.84,21.89-5.53,30.56-12.68a23.62,23.62,0,0,0,5.42-6.39c4.33-8.45,5.74-18,5.74-27.31C549.12,453.67,546.08,442.5,544.89,431.13Z" transform="translate(-423.74 -42.74)"/><path id="path624" class="cls-47" d="M427.31,482.17c-2.82-7.8-3-16.58-1.63-24.82.54,8.56.54,17,2.28,25.47A1.87,1.87,0,0,1,427.31,482.17Z" transform="translate(-423.74 -42.74)"/><path id="path670" class="cls-57" d="M447.79,487c5.2,2.82,10.51,5.74,16.26,7.15,19,4.77,39.34,2.71,57.76-3.36,3.68-1.52,8-2.38,10.51-5.74,5.42-6.83,9.64-15.17,9.32-24.17-.33-10-3.47-19.51-5.42-29.26A161.29,161.29,0,0,1,532.86,386c2.6.11,5.2.11,7.8.22-.33,13.76-1.52,27.85,2,41.29,3.36,16.69,7.26,33.81,4.12,50.82-.65,4.33-2.6,8.24-3.36,12.57-27.85,17.66-63.61,19.83-94.71,10-5-1.3-9.43-4.55-14.63-5.09-1.08-4.23-3.9-7.69-5.53-11.7a3.61,3.61,0,0,1-.33-.65l-.33-.65c-1.73-8.34-1.84-16.91-2.28-25.47l.11-.76c1.84-5.64,1.73-11.6,3.14-17.34,4.12-17.45,5-35.44,4.77-53.32,3.14-.22,6.29-.33,9.54-.33a164.68,164.68,0,0,1-2.28,45c-1,6.61-2.49,13.11-2.82,19.72-.22,4.33-.33,8.67-.65,13A45,45,0,0,0,438.91,474l.22.54C441.08,479.35,444.33,483.36,447.79,487Z" transform="translate(-423.74 -42.74)"/><path id="path680" class="cls-47" d="M428.18,483.47a3.61,3.61,0,0,1,.33.65c1.63,4,4.44,7.48,5.53,11.7C431.11,492.25,428.29,488.34,428.18,483.47Z" transform="translate(-423.74 -42.74)"/><path id="path692" class="cls-58" d="M448.66,500.91c31,9.75,66.86,7.59,94.71-10.08l-.33,1.63a21.85,21.85,0,0,1-5.42,6.39C529,506,518,509.69,507.07,511.53c-16.91,2.71-34.35,1.19-50.93-2.82-.22-2.38-2.93-2.49-4.66-1.84-4.88-1.73-9.32-4.33-14.09-6.5-.11-.11-.43-.33-.54-.43l-2.93-4.23C439.23,496.47,443.68,499.72,448.66,500.91Z" transform="translate(-423.74 -42.74)"/><path id="path694" class="cls-59" d="M451.59,507c1.73-.65,4.44-.54,4.66,1.84A6.37,6.37,0,0,1,451.59,507Z" transform="translate(-423.74 -42.74)"/><path id="path392-2" data-name="path392" class="cls-50" d="M533,385.94c2.6.11,5.2.11,7.8.22v-.33c0-2.17,0-4.33.11-6.5l.87.43.33-.76c.33-8.78,1.19-17.45,1.52-26.12.43-4.88.54-9.86,1-14.74v-.22c.33-12.46,1.63-24.82,2-37.28l1.41-26.44a15.89,15.89,0,0,0-8-2.17C536.44,272.59,533,385.94,533,385.94Z" transform="translate(-423.74 -42.74)"/><path id="path246-2" data-name="path246" class="cls-57" d="M432.41,379.54l.87-.11c0,2.06,0,4.12.11,6.18l.33.43c3.14-.22,6.29-.33,9.54-.33l-9.32-109.78-.33.33c-2.6.22-5.2.33-7.69.33-.22,2.38-.33,4.88-.33,7.37a4.61,4.61,0,0,1,.22,1.19c1.73,13,1.84,26.22,3,39.34C429.81,342.7,431.54,361.12,432.41,379.54Z" transform="translate(-423.74 -42.74)"/><path class="cls-2" d="M547.71,285v-6.94s-24.92-2.71-63.07-2.71-59.28,1.08-59.28,1.08l.22,8.45L457,333.16l-24.38,46.38v6.61s19.07-1.3,53-1.3,56.13,1.73,56.13,1.73l.22-7.15-18.21-47.68Z" transform="translate(-423.74 -42.74)"/><path class="cls-60" d="M541.86,379.44s-23.73-1.63-52.23-1.63-57.11,1.73-57.11,1.73L425.69,285s22.65-1.41,59.49-1.41,62.53,1.52,62.53,1.52Z" transform="translate(-423.74 -42.74)"/><path class="cls-2" d="M445.74,356V342.81h1.73V356Z" transform="translate(-423.74 -42.74)"/><path class="cls-2" d="M456.57,352.56l1.63.22a4.94,4.94,0,0,1-1.3,2.6,3.88,3.88,0,0,1-2.6,1,4,4,0,0,1-3.14-1.3,5.37,5.37,0,0,1-1.19-3.68,6.69,6.69,0,0,1,.54-2.71,3.82,3.82,0,0,1,3.79-2.28,3.61,3.61,0,0,1,2.49.76,4,4,0,0,1,1.3,2.28l-1.63.22a2.52,2.52,0,0,0-.76-1.41,2.18,2.18,0,0,0-1.41-.43,2.38,2.38,0,0,0-2,.87,4,4,0,0,0-.76,2.82,4.17,4.17,0,0,0,.76,2.82,2.54,2.54,0,0,0,2,.87,2.66,2.66,0,0,0,1.63-.54A11.45,11.45,0,0,0,456.57,352.56Z" transform="translate(-423.74 -42.74)"/><path class="cls-2" d="M466.11,352.89l1.63.22a3.74,3.74,0,0,1-1.52,2.28,4.44,4.44,0,0,1-2.71.76,4.49,4.49,0,0,1-3.36-1.3,4.78,4.78,0,0,1-1.19-3.58,5.88,5.88,0,0,1,1.19-3.79,4.41,4.41,0,0,1,3.25-1.3,4.17,4.17,0,0,1,3.14,1.3,5.37,5.37,0,0,1,1.19,3.68v.43h-7.15a3.69,3.69,0,0,0,.87,2.38,2.71,2.71,0,0,0,2,.87,2.49,2.49,0,0,0,1.52-.43A2.9,2.9,0,0,0,466.11,352.89Zm-5.31-2.6h5.31a4.1,4.1,0,0,0-.65-1.84,2.52,2.52,0,0,0-2.06-1,2.23,2.23,0,0,0-1.84.76A3.42,3.42,0,0,0,460.8,350.28Z" transform="translate(-423.74 -42.74)"/><path class="cls-2" d="M484.53,351.37l1.73.43a5.53,5.53,0,0,1-2,3.25,5.31,5.31,0,0,1-3.47,1.08,6.56,6.56,0,0,1-3.47-.87,6,6,0,0,1-2.06-2.49,9.55,9.55,0,0,1-.65-3.58,7.27,7.27,0,0,1,.76-3.58,5.13,5.13,0,0,1,2.28-2.28,6.54,6.54,0,0,1,3.25-.76,5.83,5.83,0,0,1,3.36,1,5.17,5.17,0,0,1,1.84,2.82l-1.73.43a4.23,4.23,0,0,0-1.3-2.06,3.44,3.44,0,0,0-2.17-.65,3.8,3.8,0,0,0-2.49.76,3.3,3.3,0,0,0-1.41,2,6.72,6.72,0,0,0-.43,2.49,8.27,8.27,0,0,0,.54,2.93,3.7,3.7,0,0,0,1.52,1.84,4,4,0,0,0,2.28.65,3.86,3.86,0,0,0,2.49-.87A7.75,7.75,0,0,0,484.53,351.37Z" transform="translate(-423.74 -42.74)"/><path class="cls-2" d="M488.22,356v-9.54h1.41v1.41a3.42,3.42,0,0,1,1.08-1.3,1.83,1.83,0,0,1,1.08-.33,3.22,3.22,0,0,1,1.63.54l-.54,1.52a2.47,2.47,0,0,0-1.19-.33,1.75,1.75,0,0,0-1,.33,2.61,2.61,0,0,0-.65.87,5.07,5.07,0,0,0-.22,1.84v5Z" transform="translate(-423.74 -42.74)"/><path class="cls-2" d="M500.89,352.89l1.63.22a3.74,3.74,0,0,1-1.52,2.28,4.44,4.44,0,0,1-2.71.76,4.49,4.49,0,0,1-3.36-1.3,4.78,4.78,0,0,1-1.19-3.58,5.88,5.88,0,0,1,1.19-3.79,4.41,4.41,0,0,1,3.25-1.3,4.17,4.17,0,0,1,3.14,1.3,5.37,5.37,0,0,1,1.19,3.68v.43h-7.15a3.69,3.69,0,0,0,.87,2.38,2.71,2.71,0,0,0,2,.87,2.49,2.49,0,0,0,1.52-.43A2.46,2.46,0,0,0,500.89,352.89Zm-5.31-2.6h5.31a4.1,4.1,0,0,0-.65-1.84,2.52,2.52,0,0,0-2.06-1,2.23,2.23,0,0,0-1.84.76A3.42,3.42,0,0,0,495.58,350.28Z" transform="translate(-423.74 -42.74)"/><path class="cls-2" d="M510.86,354.84a6.37,6.37,0,0,1-1.73,1.08,4.91,4.91,0,0,1-1.73.33,3.16,3.16,0,0,1-2.38-.76,2.71,2.71,0,0,1-.87-2,2.89,2.89,0,0,1,.33-1.3,3.74,3.74,0,0,1,.87-1,4,4,0,0,1,1.19-.54,4.25,4.25,0,0,1,1.41-.22,12.84,12.84,0,0,0,2.93-.54v-.43a1.84,1.84,0,0,0-.43-1.41,2.87,2.87,0,0,0-1.84-.54,2.75,2.75,0,0,0-1.73.43,2.19,2.19,0,0,0-.76,1.41l-1.63-.22a3.77,3.77,0,0,1,.76-1.63,2.75,2.75,0,0,1,1.41-1,6.52,6.52,0,0,1,2.17-.33,4.53,4.53,0,0,1,2,.33,2.14,2.14,0,0,1,1.08.76,3.39,3.39,0,0,1,.54,1.08c0,.33.11.76.11,1.52v2.17a15.52,15.52,0,0,0,.11,2.82,5.28,5.28,0,0,0,.43,1.19H511.3A2.08,2.08,0,0,1,510.86,354.84Zm-.22-3.58a17.86,17.86,0,0,1-2.6.65,9.29,9.29,0,0,0-1.41.33,1.11,1.11,0,0,0-.65.54,1.57,1.57,0,0,0-.22.76,1.5,1.5,0,0,0,.54,1.08,1.84,1.84,0,0,0,1.41.43,2.61,2.61,0,0,0,1.63-.43,3.44,3.44,0,0,0,1.08-1.08,3.24,3.24,0,0,0,.22-1.63Z" transform="translate(-423.74 -42.74)"/><path class="cls-2" d="M514.87,356v-9.54h1.41v1.3a2.88,2.88,0,0,1,1.19-1.08,4.54,4.54,0,0,1,1.73-.43,2.75,2.75,0,0,1,1.73.43,3.39,3.39,0,0,1,1,1.19,3.44,3.44,0,0,1,2.93-1.63A2.79,2.79,0,0,1,527,347a3.16,3.16,0,0,1,.76,2.38V356h-1.63V350a4.89,4.89,0,0,0-.11-1.41,1.11,1.11,0,0,0-.54-.65,1.61,1.61,0,0,0-1-.22,2.21,2.21,0,0,0-1.63.65,3,3,0,0,0-.65,2.17V356h-1.63v-6.18a2.25,2.25,0,0,0-.43-1.63,1.62,1.62,0,0,0-1.3-.54,2.89,2.89,0,0,0-1.3.33,1.79,1.79,0,0,0-.87,1.08,4.81,4.81,0,0,0-.22,2v5h-1.63Z" transform="translate(-423.74 -42.74)"/><path class="cls-2" d="M430.46,292v-4.66h1.63a2.11,2.11,0,0,1,.87.11,3.61,3.61,0,0,1,.65.33,1.94,1.94,0,0,1,.54.76,3.21,3.21,0,0,1,.22,1.08,3,3,0,0,1-.11,1,1.76,1.76,0,0,1-.33.65c-.11.11-.22.33-.43.43a.83.83,0,0,1-.54.22c-.22,0-.43.11-.76.11Zm.65-.54h1a1.61,1.61,0,0,0,.76-.11c.22-.11.33-.11.43-.22a2.37,2.37,0,0,0,.33-.54,2.11,2.11,0,0,0,.11-.87,2.72,2.72,0,0,0-.22-1.08,1.31,1.31,0,0,0-.54-.54,1.61,1.61,0,0,0-.76-.11h-1.08Z" transform="translate(-423.74 -42.74)"/><path class="cls-2" d="M435.12,288v-.65h.54V288Zm0,4v-3.36h.54V292Z" transform="translate(-423.74 -42.74)"/><path class="cls-2" d="M436.31,291l.54-.11a.83.83,0,0,0,.22.54.92.92,0,0,0,.65.22.81.81,0,0,0,.54-.11c.11-.11.22-.22.22-.33s-.11-.22-.22-.33a1.83,1.83,0,0,1-.54-.22,2.38,2.38,0,0,1-.87-.33c-.11-.11-.33-.22-.33-.33a.92.92,0,0,1,0-.87c.11-.11.11-.22.33-.33s.22-.11.33-.22a.81.81,0,0,1,.54-.11c.22,0,.54,0,.65.11s.33.22.43.33.11.33.22.54l-.54.11a.56.56,0,0,0-.22-.43,1.41,1.41,0,0,0-1.08,0c-.11.11-.22.22-.22.33s0,.11.11.22.11.11.22.11a2.2,2.2,0,0,0,.54.11,4.87,4.87,0,0,0,.87.22c.11.11.33.22.33.33a4.69,4.69,0,0,1,.11.54c0,.22-.11.33-.22.54s-.33.33-.43.43a1.61,1.61,0,0,1-.76.11,1.32,1.32,0,0,1-1-.33A1.75,1.75,0,0,1,436.31,291Z" transform="translate(-423.74 -42.74)"/><path class="cls-2" d="M441.94,290.79l.54.11a1.63,1.63,0,0,1-.43.87,1.32,1.32,0,0,1-1,.33,1.26,1.26,0,0,1-1.08-.43,1.73,1.73,0,0,1-.43-1.3,3.16,3.16,0,0,1,.22-1c.11-.33.33-.43.54-.65a1,1,0,0,1,.76-.22,1.23,1.23,0,0,1,.87.33,1.1,1.1,0,0,1,.43.76l-.54.11a.6.6,0,0,0-.33-.54c-.22-.11-.33-.22-.43-.22a.66.66,0,0,0-.65.33,2.3,2.3,0,0,0,0,2,.77.77,0,0,0,.65.33.83.83,0,0,0,.54-.22A.92.92,0,0,0,441.94,290.79Z" transform="translate(-423.74 -42.74)"/><path class="cls-2" d="M443,292v-4.66h.54V292Z" transform="translate(-423.74 -42.74)"/><path class="cls-2" d="M446.71,291.55a2.27,2.27,0,0,1-.65.43,1.37,1.37,0,0,1-.65.11,1.23,1.23,0,0,1-.87-.33.94.94,0,0,1-.33-.65c0-.22,0-.33.11-.43l.33-.33c.11-.11.22-.11.43-.22a4.69,4.69,0,0,1,.54-.11,6.91,6.91,0,0,0,1-.22v-.11a.81.81,0,0,0-.11-.54.92.92,0,0,0-.65-.22.81.81,0,0,0-.54.11,1.16,1.16,0,0,0-.33.54l-.54-.11a.83.83,0,0,1,.22-.54,2.37,2.37,0,0,1,.54-.33,1.61,1.61,0,0,1,.76-.11c.33,0,.54,0,.65.11s.33.11.43.22.11.22.22.43v2.28c0,.11.11.33.11.43h-.65Zm-.11-1.19a6.91,6.91,0,0,1-1,.22,4.69,4.69,0,0,0-.54.11.23.23,0,0,0-.22.22c0,.11-.11.22-.11.33a.82.82,0,0,0,.22.43,1.41,1.41,0,0,0,1.08,0c.22-.11.33-.22.33-.43a.81.81,0,0,0,.11-.54v-.33Z" transform="translate(-423.74 -42.74)"/><path class="cls-2" d="M448.12,288v-.65h.54V288Zm0,4v-3.36h.54V292Z" transform="translate(-423.74 -42.74)"/><path class="cls-2" d="M449.53,292v-3.36h.54v.43a.85.85,0,0,1,.43-.43,1.17,1.17,0,0,1,.65-.11,1.37,1.37,0,0,1,.65.11c.22.11.33.22.33.43a1.1,1.1,0,0,1,1.08-.54,1,1,0,0,1,.76.33c.22.22.22.43.22.87V292h-.54v-2.17a.81.81,0,0,0-.11-.54.23.23,0,0,0-.22-.22c-.11,0-.22-.11-.33-.11a.83.83,0,0,0-.54.22,1.26,1.26,0,0,0-.22.76v2h-.54v-2.17a.81.81,0,0,0-.11-.54.56.56,0,0,0-.43-.22.65.65,0,0,0-.43.11l-.33.33c-.11.11-.11.43-.11.76v1.73h-.76Z" transform="translate(-423.74 -42.74)"/><path class="cls-2" d="M457.22,290.9l.54.11c-.11.33-.22.65-.54.76a2.59,2.59,0,0,1-1,.33,1.48,1.48,0,0,1-1.19-.43,2.17,2.17,0,0,1,0-2.6,1.39,1.39,0,0,1,1.08-.43,1.26,1.26,0,0,1,1.08.43,2.32,2.32,0,0,1,.43,1.3v.11h-2.49a1.23,1.23,0,0,0,.33.87,1,1,0,0,0,.76.33.83.83,0,0,0,.54-.22C456.9,291.33,457.22,291.12,457.22,290.9Zm-1.84-.87h1.84a.92.92,0,0,0-.22-.65,1,1,0,0,0-.76-.33,1.54,1.54,0,0,0-.65.22C455.38,289.38,455.38,289.71,455.38,290Z" transform="translate(-423.74 -42.74)"/><path class="cls-2" d="M458.52,292v-3.36h.54v.54c.11-.22.22-.43.33-.43s.22-.11.33-.11a.83.83,0,0,1,.54.22l-.22.54a.65.65,0,0,0-.43-.11.4.4,0,0,0-.33.11c-.11.11-.22.22-.22.33a1.37,1.37,0,0,0-.11.65v1.73h-.43Z" transform="translate(-423.74 -42.74)"/><path class="cls-2" d="M460.91,289.27v-.65h.65v.65Zm0,2.71v-.65h.65V292Z" transform="translate(-423.74 -42.74)"/><path class="cls-2" d="M464.37,292v-4.66h2.49a.83.83,0,0,1,.54.22c.11.11.33.22.33.43s.11.43.11.65a1.32,1.32,0,0,1-.33,1c-.22.33-.76.43-1.41.43h-1.19v1.84h-.54Zm.65-2.38h1.19a1.68,1.68,0,0,0,.87-.22c.22-.11.22-.33.22-.65a1,1,0,0,0-.11-.54c-.11-.22-.22-.22-.43-.33H465Z" transform="translate(-423.74 -42.74)"/><path class="cls-2" d="M468.71,292v-3.36h.54v.54c.11-.22.22-.43.33-.43s.22-.11.33-.11a.83.83,0,0,1,.54.22l-.22.54a.65.65,0,0,0-.43-.11.4.4,0,0,0-.33.11c-.11.11-.22.22-.22.33a1.37,1.37,0,0,0-.11.65v1.73h-.43Z" transform="translate(-423.74 -42.74)"/><path class="cls-2" d="M470.66,290.36a1.87,1.87,0,0,1,.54-1.41,1.83,1.83,0,0,1,1.08-.33,1.26,1.26,0,0,1,1.08.43,2.32,2.32,0,0,1,.43,1.3,2.16,2.16,0,0,1-.22,1,1.31,1.31,0,0,1-.54.54,2,2,0,0,1-.87.22,1.63,1.63,0,0,1-1.19-.43A1.69,1.69,0,0,1,470.66,290.36Zm.54,0a1.32,1.32,0,0,0,.33,1,1,1,0,0,0,1.52,0,1.63,1.63,0,0,0,0-2,1,1,0,0,0-1.52,0A1.32,1.32,0,0,0,471.2,290.36Z" transform="translate(-423.74 -42.74)"/><path class="cls-2" d="M476.62,292v-.43a1.14,1.14,0,0,1-1,.54,2,2,0,0,1-.76-.22,1.11,1.11,0,0,1-.54-.65,2.55,2.55,0,0,1-.22-.87,2,2,0,0,1,.22-.87c.11-.33.33-.43.54-.65a.91.91,0,0,1,.76-.22.81.81,0,0,1,.54.11c.11.11.33.22.43.33v-1.63h.54v4.66h-.54Zm-1.73-1.63a1.32,1.32,0,0,0,.33,1,.81.81,0,0,0,1.3,0c.22-.22.22-.54.22-1a2.16,2.16,0,0,0-.22-1,.77.77,0,0,0-.65-.33.94.94,0,0,0-.65.33A1.32,1.32,0,0,0,474.89,290.36Z" transform="translate(-423.74 -42.74)"/><path class="cls-2" d="M480.3,292v-.54a1.1,1.1,0,0,1-1.08.54.81.81,0,0,1-.54-.11c-.11-.11-.33-.22-.43-.33s-.11-.22-.22-.43v-2.49h.54v2.49c0,.11.11.22.22.33s.22.11.43.11.33,0,.43-.11l.33-.33c.11-.11.11-.33.11-.65v-1.84h.54V292Z" transform="translate(-423.74 -42.74)"/><path class="cls-2" d="M483.88,290.79h.54a1.63,1.63,0,0,1-.43.87,1.32,1.32,0,0,1-1,.33,1.26,1.26,0,0,1-1.08-.43,1.73,1.73,0,0,1-.43-1.3,3.16,3.16,0,0,1,.22-1c.11-.33.33-.43.54-.65a1,1,0,0,1,.76-.22,1.23,1.23,0,0,1,.87.33,1.1,1.1,0,0,1,.43.76l-.54.11a.6.6,0,0,0-.33-.54c-.22-.11-.33-.22-.43-.22a.66.66,0,0,0-.65.33,2.3,2.3,0,0,0,0,2,.77.77,0,0,0,.65.33.83.83,0,0,0,.54-.22C483.66,291.12,483.88,291,483.88,290.79Z" transform="translate(-423.74 -42.74)"/><path class="cls-2" d="M486.16,291.44l.11.54h-.43c-.22,0-.33,0-.43-.11s-.22-.11-.22-.22a3.83,3.83,0,0,1-.11-.65v-2h-.43v-.43h.43v-.87l.54-.33v1.19h.54v.43h-.54v2.28c0,.11,0,.11.11.11h.22C486,291.55,486,291.55,486.16,291.44Z" transform="translate(-423.74 -42.74)"/><path class="cls-2" d="M490.82,290.79l.54.11a1.63,1.63,0,0,1-.43.87,1.32,1.32,0,0,1-1,.33,1.26,1.26,0,0,1-1.08-.43,1.73,1.73,0,0,1-.43-1.3,3.16,3.16,0,0,1,.22-1c.11-.33.33-.43.54-.65a1,1,0,0,1,.76-.22,1.23,1.23,0,0,1,.87.33,1.1,1.1,0,0,1,.43.76l-.54.11a.6.6,0,0,0-.33-.54c-.22-.11-.33-.22-.43-.22a.66.66,0,0,0-.65.33,2.3,2.3,0,0,0,0,2,.77.77,0,0,0,.65.33.83.83,0,0,0,.54-.22A2.37,2.37,0,0,0,490.82,290.79Z" transform="translate(-423.74 -42.74)"/><path class="cls-2" d="M491.57,290.36a1.87,1.87,0,0,1,.54-1.41,1.83,1.83,0,0,1,1.08-.33,1.26,1.26,0,0,1,1.08.43,2.32,2.32,0,0,1,.43,1.3,2.16,2.16,0,0,1-.22,1,1.31,1.31,0,0,1-.54.54,2,2,0,0,1-.87.22,1.63,1.63,0,0,1-1.19-.43A1.69,1.69,0,0,1,491.57,290.36Zm.65,0a1.32,1.32,0,0,0,.33,1,1,1,0,0,0,1.52,0,1.63,1.63,0,0,0,0-2,1,1,0,0,0-1.52,0A1.32,1.32,0,0,0,492.23,290.36Z" transform="translate(-423.74 -42.74)"/><path class="cls-2" d="M495.48,292v-3.36H496v.43a1.33,1.33,0,0,1,1.08-.54.81.81,0,0,1,.54.11c.11.11.33.22.43.33s.11.22.22.43V292h-.54v-2.06a.81.81,0,0,0-.11-.54c0-.11-.11-.22-.22-.33s-.22-.11-.43-.11a1.54,1.54,0,0,0-.65.22c-.22.11-.22.43-.22.87v1.84h-.65Z" transform="translate(-423.74 -42.74)"/><path class="cls-2" d="M500.35,291.44l.11.54H500c-.22,0-.33,0-.43-.11s-.22-.11-.22-.22a3.83,3.83,0,0,1-.11-.65v-2h-.43v-.43h.43v-.87l.54-.33v1.19h.54v.43h-.54v2.28c0,.11,0,.11.11.11h.22C500.14,291.55,500.24,291.55,500.35,291.44Z" transform="translate(-423.74 -42.74)"/><path class="cls-2" d="M503.06,291.55a2.27,2.27,0,0,1-.65.43,1.37,1.37,0,0,1-.65.11,1.23,1.23,0,0,1-.87-.33.94.94,0,0,1-.33-.65c0-.22,0-.33.11-.43l.33-.33c.11-.11.22-.11.43-.22A4.69,4.69,0,0,1,502,290a6.91,6.91,0,0,0,1-.22v-.11a.81.81,0,0,0-.11-.54.92.92,0,0,0-.65-.22.81.81,0,0,0-.54.11,1.16,1.16,0,0,0-.33.54l-.54-.11a.83.83,0,0,1,.22-.54,2.37,2.37,0,0,1,.54-.33,1.61,1.61,0,0,1,.76-.11c.33,0,.54,0,.65.11s.33.11.43.22.11.22.22.43v2.28c0,.11.11.33.11.43h-.65Zm0-1.19a6.91,6.91,0,0,1-1,.22,4.69,4.69,0,0,0-.54.11.23.23,0,0,0-.22.22c0,.11-.11.22-.11.33a.82.82,0,0,0,.22.43,1.41,1.41,0,0,0,1.08,0c.22-.11.33-.22.33-.43a.81.81,0,0,0,.11-.54v-.33Z" transform="translate(-423.74 -42.74)"/><path class="cls-2" d="M504.47,288v-.65H505V288Zm0,4v-3.36H505V292Z" transform="translate(-423.74 -42.74)"/><path class="cls-2" d="M505.88,292v-3.36h.54v.43a1.33,1.33,0,0,1,1.08-.54.81.81,0,0,1,.54.11c.11.11.33.22.43.33s.11.22.22.43V292h-.54v-2.06a.81.81,0,0,0-.11-.54c0-.11-.11-.22-.22-.33s-.22-.11-.43-.11a1.54,1.54,0,0,0-.65.22c-.22.11-.22.43-.22.87v1.84h-.65Z" transform="translate(-423.74 -42.74)"/><path class="cls-2" d="M509.35,291l.54-.11a.83.83,0,0,0,.22.54.92.92,0,0,0,.65.22.81.81,0,0,0,.54-.11c.11-.11.22-.22.22-.33s-.11-.22-.22-.33a1.83,1.83,0,0,1-.54-.22,2.38,2.38,0,0,1-.87-.33c-.11-.11-.33-.22-.33-.33a.92.92,0,0,1,0-.87c.11-.11.11-.22.33-.33s.22-.11.33-.22a.81.81,0,0,1,.54-.11c.22,0,.54,0,.65.11s.33.22.43.33.11.33.22.54l-.54.11a.56.56,0,0,0-.22-.43,1.41,1.41,0,0,0-1.08,0c-.11.11-.22.22-.22.33s0,.11.11.22.11.11.22.11a2.2,2.2,0,0,0,.54.11,4.87,4.87,0,0,0,.87.22c.11.11.33.22.33.33a4.69,4.69,0,0,1,.11.54c0,.22-.11.33-.22.54s-.33.33-.43.43a1.61,1.61,0,0,1-.76.11,1.32,1.32,0,0,1-1-.33A1.1,1.1,0,0,1,509.35,291Z" transform="translate(-423.74 -42.74)"/><path class="cls-2" d="M514.55,292v-3.36h.54v.43a1.33,1.33,0,0,1,1.08-.54.81.81,0,0,1,.54.11c.11.11.33.22.43.33s.11.22.22.43V292h-.54v-2.06a.81.81,0,0,0-.11-.54c0-.11-.11-.22-.22-.33s-.22-.11-.43-.11a1.54,1.54,0,0,0-.65.22c-.22.11-.22.43-.22.87v1.84h-.65Z" transform="translate(-423.74 -42.74)"/><path class="cls-2" d="M520.51,290.9l.54.11c-.11.33-.22.65-.54.76a2.59,2.59,0,0,1-1,.33,1.48,1.48,0,0,1-1.19-.43,2.17,2.17,0,0,1,0-2.6,1.39,1.39,0,0,1,1.08-.43,1.26,1.26,0,0,1,1.08.43,2.32,2.32,0,0,1,.43,1.3v.11h-2.49a1.23,1.23,0,0,0,.33.87,1,1,0,0,0,.76.33.83.83,0,0,0,.54-.22A2.36,2.36,0,0,0,520.51,290.9Zm-1.84-.87h1.84a.92.92,0,0,0-.22-.65,1,1,0,0,0-.76-.33,1.54,1.54,0,0,0-.65.22C518.67,289.38,518.67,289.71,518.67,290Z" transform="translate(-423.74 -42.74)"/><path class="cls-2" d="M521.81,288v-.65h.54V288Zm0,4v-3.36h.54V292Z" transform="translate(-423.74 -42.74)"/><path class="cls-2" d="M524.52,291.44l.11.54h-.43c-.22,0-.33,0-.43-.11s-.22-.11-.22-.22a3.83,3.83,0,0,1-.11-.65v-2H523v-.43h.43v-.87l.54-.33v1.19h.54v.43H524v2.28c0,.11,0,.11.11.11h.22C524.3,291.55,524.41,291.55,524.52,291.44Z" transform="translate(-423.74 -42.74)"/><path class="cls-2" d="M525.06,292v-4.66h.54v1.63a1.18,1.18,0,0,1,1-.43,1.37,1.37,0,0,1,.65.11.85.85,0,0,1,.43.43,1.61,1.61,0,0,1,.11.76V292h-.54v-2.17a.92.92,0,0,0-.22-.65.83.83,0,0,0-.54-.22c-.22,0-.33,0-.43.11l-.33.33c-.11.11-.11.33-.11.65v1.84h-.54Z" transform="translate(-423.74 -42.74)"/><path class="cls-2" d="M531,290.9l.54.11c-.11.33-.22.65-.54.76a2.59,2.59,0,0,1-1,.33,1.48,1.48,0,0,1-1.19-.43,2.17,2.17,0,0,1,0-2.6,1.39,1.39,0,0,1,1.08-.43,1.26,1.26,0,0,1,1.08.43,2.32,2.32,0,0,1,.43,1.3v.11H529a1.23,1.23,0,0,0,.33.87,1,1,0,0,0,.76.33.83.83,0,0,0,.54-.22A2.36,2.36,0,0,0,531,290.9Zm-1.84-.87H531a.92.92,0,0,0-.22-.65,1,1,0,0,0-.76-.33,1.54,1.54,0,0,0-.65.22C529.18,289.38,529.18,289.71,529.18,290Z" transform="translate(-423.74 -42.74)"/><path class="cls-2" d="M532.32,292v-3.36h.54v.54c.11-.22.22-.43.33-.43s.22-.11.33-.11a.83.83,0,0,1,.54.22l-.22.54a.65.65,0,0,0-.43-.11.4.4,0,0,0-.33.11c-.11.11-.22.22-.22.33a1.37,1.37,0,0,0-.11.65v1.73h-.43Z" transform="translate(-423.74 -42.74)"/><path class="cls-2" d="M536.33,288v-.65h.54V288Zm0,4v-3.36h.54V292Z" transform="translate(-423.74 -42.74)"/><path class="cls-2" d="M539.91,290.79l.54.11a1.63,1.63,0,0,1-.43.87,1.32,1.32,0,0,1-1,.33,1.26,1.26,0,0,1-1.08-.43,1.73,1.73,0,0,1-.43-1.3,3.16,3.16,0,0,1,.22-1c.11-.33.33-.43.54-.65a1,1,0,0,1,.76-.22,1.23,1.23,0,0,1,.87.33,1.1,1.1,0,0,1,.43.76l-.54.11a.6.6,0,0,0-.33-.54c-.22-.11-.33-.22-.43-.22a.66.66,0,0,0-.65.33,2.3,2.3,0,0,0,0,2,.77.77,0,0,0,.65.33.83.83,0,0,0,.54-.22A.92.92,0,0,0,539.91,290.79Z" transform="translate(-423.74 -42.74)"/><path class="cls-2" d="M543.27,290.9l.54.11c-.11.33-.22.65-.54.76a2.59,2.59,0,0,1-1,.33,1.48,1.48,0,0,1-1.19-.43,2.17,2.17,0,0,1,0-2.6,1.39,1.39,0,0,1,1.08-.43,1.26,1.26,0,0,1,1.08.43,2.32,2.32,0,0,1,.43,1.3v.11h-2.49a1.23,1.23,0,0,0,.33.87,1,1,0,0,0,.76.33.83.83,0,0,0,.54-.22A2.36,2.36,0,0,0,543.27,290.9Zm-1.84-.87h1.84a.92.92,0,0,0-.22-.65,1,1,0,0,0-.76-.33,1.54,1.54,0,0,0-.65.22C541.42,289.38,541.42,289.71,541.42,290Z" transform="translate(-423.74 -42.74)"/><path class="cls-2" d="M430.35,299.79v-3.36h.54v.43a1.33,1.33,0,0,1,1.08-.54.81.81,0,0,1,.54.11,1.5,1.5,0,0,1,.43.33c.11.11.11.22.22.43v2.6h-.65v-2.06a.81.81,0,0,0-.11-.54c0-.11-.11-.22-.22-.33s-.22-.11-.43-.11a1.54,1.54,0,0,0-.65.22c-.22.11-.22.43-.22.87v1.84h-.54Z" transform="translate(-423.74 -42.74)"/><path class="cls-2" d="M433.82,298.16a1.87,1.87,0,0,1,.54-1.41,1.83,1.83,0,0,1,1.08-.33,1.26,1.26,0,0,1,1.08.43,1.73,1.73,0,0,1,.43,1.3,2.16,2.16,0,0,1-.22,1,1.31,1.31,0,0,1-.54.54,2,2,0,0,1-.87.22,1.63,1.63,0,0,1-1.19-.43A1.69,1.69,0,0,1,433.82,298.16Zm.54,0a1.32,1.32,0,0,0,.33,1,1,1,0,0,0,1.52,0,1.63,1.63,0,0,0,0-2,1,1,0,0,0-1.52,0A1.32,1.32,0,0,0,434.36,298.16Z" transform="translate(-423.74 -42.74)"/><path class="cls-2" d="M437.61,299.79v-3.36h.54V297c.11-.22.22-.43.33-.43s.22-.11.33-.11a.83.83,0,0,1,.54.22l-.22.54a.65.65,0,0,0-.43-.11.4.4,0,0,0-.33.11c-.11.11-.22.22-.22.33a1.37,1.37,0,0,0-.11.65v1.73h-.43Z" transform="translate(-423.74 -42.74)"/><path class="cls-2" d="M443.78,298.59l.54.11a1.63,1.63,0,0,1-.43.87,1.32,1.32,0,0,1-1,.33,1.26,1.26,0,0,1-1.08-.43,1.73,1.73,0,0,1-.43-1.3,3.16,3.16,0,0,1,.22-1c.11-.33.33-.43.54-.65a2,2,0,0,1,.76-.22,1.23,1.23,0,0,1,.87.33,1.1,1.1,0,0,1,.43.76l-.54.11a.6.6,0,0,0-.33-.54c-.22-.11-.33-.22-.43-.22a.66.66,0,0,0-.65.33c-.22.22-.22.54-.22,1a2.16,2.16,0,0,0,.22,1,.77.77,0,0,0,.65.33.83.83,0,0,0,.54-.22A.92.92,0,0,0,443.78,298.59Z" transform="translate(-423.74 -42.74)"/><path class="cls-2" d="M444.87,299.79v-3.36h.54V297c.11-.22.22-.43.33-.43s.22-.11.33-.11a.83.83,0,0,1,.54.22l-.22.54a.65.65,0,0,0-.43-.11.4.4,0,0,0-.33.11c-.11.11-.22.22-.22.33a1.37,1.37,0,0,0-.11.65v1.73h-.43Z" transform="translate(-423.74 -42.74)"/><path class="cls-2" d="M449.31,298.7l.54.11c-.11.33-.22.65-.54.76a2.59,2.59,0,0,1-1,.33,1.48,1.48,0,0,1-1.19-.43,2.17,2.17,0,0,1,0-2.6,1.39,1.39,0,0,1,1.08-.43,1.26,1.26,0,0,1,1.08.43,2.32,2.32,0,0,1,.43,1.3v.11h-2.49a1.23,1.23,0,0,0,.33.87,1,1,0,0,0,.76.33.83.83,0,0,0,.54-.22A2.36,2.36,0,0,0,449.31,298.7Zm-1.84-.87h1.84a.92.92,0,0,0-.22-.65,1,1,0,0,0-.76-.33,1.54,1.54,0,0,0-.65.22C447.47,297.18,447.47,297.51,447.47,297.83Z" transform="translate(-423.74 -42.74)"/><path class="cls-2" d="M452.78,299.35a2.27,2.27,0,0,1-.65.43,1.37,1.37,0,0,1-.65.11,1.23,1.23,0,0,1-.87-.33.94.94,0,0,1-.33-.65c0-.22,0-.33.11-.43l.33-.33c.11-.11.22-.11.43-.22a4.69,4.69,0,0,1,.54-.11,6.91,6.91,0,0,0,1-.22v-.11a.81.81,0,0,0-.11-.54.92.92,0,0,0-.65-.22.81.81,0,0,0-.54.11,1.16,1.16,0,0,0-.33.54l-.54-.11a.83.83,0,0,1,.22-.54,2.37,2.37,0,0,1,.54-.33,1.61,1.61,0,0,1,.76-.11c.33,0,.54,0,.65.11s.33.11.43.22.11.22.22.43v2.28c0,.11.11.33.11.43H453C452.89,299.68,452.89,299.57,452.78,299.35Zm0-1.19a6.91,6.91,0,0,1-1,.22,4.69,4.69,0,0,0-.54.11.23.23,0,0,0-.22.22c0,.11-.11.22-.11.33a.82.82,0,0,0,.22.43,1.41,1.41,0,0,0,1.08,0c.22-.11.33-.22.33-.43a.81.81,0,0,0,.11-.54v-.33Z" transform="translate(-423.74 -42.74)"/><path class="cls-2" d="M454.3,299.79v-3.36h.54v.43a.85.85,0,0,1,.43-.43,1.17,1.17,0,0,1,.65-.11,1.37,1.37,0,0,1,.65.11c.22.11.33.22.33.43a1.1,1.1,0,0,1,1.08-.54,1,1,0,0,1,.76.33c.22.22.22.43.22.87v2.28h-.54v-2.17a.81.81,0,0,0-.11-.54.23.23,0,0,0-.22-.22c-.11,0-.22-.11-.33-.11a.83.83,0,0,0-.54.22,1.26,1.26,0,0,0-.22.76v2h-.76v-2.17a.81.81,0,0,0-.11-.54.56.56,0,0,0-.43-.22.65.65,0,0,0-.43.11l-.33.33c-.11.11-.11.43-.11.76v1.73h-.54Z" transform="translate(-423.74 -42.74)"/><path class="cls-2" d="M459.82,299.79v-.65h.65v.65Z" transform="translate(-423.74 -42.74)"/><path class="cls-2" d="M463.29,299.79v-4.66h1l1.08,3.25a4.26,4.26,0,0,1,.22.65,2.76,2.76,0,0,1,.22-.76l1.08-3.25h.87v4.66h-.54v-3.9l-1.3,3.9h-.54l-1.3-4v4h-.76Z" transform="translate(-423.74 -42.74)"/><path class="cls-2" d="M470.88,299.35a2.27,2.27,0,0,1-.65.43,1.37,1.37,0,0,1-.65.11,1.23,1.23,0,0,1-.87-.33.94.94,0,0,1-.33-.65c0-.22,0-.33.11-.43l.33-.33c.11-.11.22-.11.43-.22a4.69,4.69,0,0,1,.54-.11,6.91,6.91,0,0,0,1-.22v-.11a.81.81,0,0,0-.11-.54.92.92,0,0,0-.65-.22.81.81,0,0,0-.54.11,1.16,1.16,0,0,0-.33.54l-.54-.11a.83.83,0,0,1,.22-.54,2.37,2.37,0,0,1,.54-.33,1.61,1.61,0,0,1,.76-.11c.33,0,.54,0,.65.11s.33.11.43.22.11.22.22.43v2.28c0,.11.11.33.11.43h-.65C471,299.68,470.88,299.57,470.88,299.35Zm0-1.19a6.91,6.91,0,0,1-1,.22,4.69,4.69,0,0,0-.54.11.23.23,0,0,0-.22.22c0,.11-.11.22-.11.33a.82.82,0,0,0,.22.43,1.41,1.41,0,0,0,1.08,0c.22-.11.33-.22.33-.43a.81.81,0,0,0,.11-.54v-.33Z" transform="translate(-423.74 -42.74)"/><path class="cls-2" d="M472.29,301.09l-.11-.54h.33a.4.4,0,0,0,.33-.11l.22-.22c0-.11.11-.22.22-.43v-.11l-1.3-3.36h.65l.65,2a2,2,0,0,1,.22.76c.11-.22.11-.54.22-.76l.76-2H475l-1.3,3.47a2.59,2.59,0,0,1-.33.76,1.5,1.5,0,0,1-.33.43.65.65,0,0,1-.43.11A.2.2,0,0,1,472.29,301.09Z" transform="translate(-423.74 -42.74)"/><path class="cls-2" d="M479.55,298.59l.54.11a1.63,1.63,0,0,1-.43.87,1.32,1.32,0,0,1-1,.33,1.26,1.26,0,0,1-1.08-.43,1.73,1.73,0,0,1-.43-1.3,3.16,3.16,0,0,1,.22-1c.11-.33.33-.43.54-.65a2,2,0,0,1,.76-.22,1.23,1.23,0,0,1,.87.33,1.1,1.1,0,0,1,.43.76l-.54.11a.6.6,0,0,0-.33-.54c-.22-.11-.33-.22-.43-.22a.66.66,0,0,0-.65.33c-.22.22-.22.54-.22,1a2.16,2.16,0,0,0,.22,1,.77.77,0,0,0,.65.33.83.83,0,0,0,.54-.22A.92.92,0,0,0,479.55,298.59Z" transform="translate(-423.74 -42.74)"/><path class="cls-2" d="M480.41,298.16a1.87,1.87,0,0,1,.54-1.41,1.83,1.83,0,0,1,1.08-.33,1.26,1.26,0,0,1,1.08.43,1.73,1.73,0,0,1,.43,1.3,2.16,2.16,0,0,1-.22,1,1.31,1.31,0,0,1-.54.54,2,2,0,0,1-.87.22,1.63,1.63,0,0,1-1.19-.43A1.69,1.69,0,0,1,480.41,298.16Zm.54,0a1.32,1.32,0,0,0,.33,1,1,1,0,0,0,1.52,0,1.63,1.63,0,0,0,0-2,1,1,0,0,0-1.52,0A1.32,1.32,0,0,0,481,298.16Z" transform="translate(-423.74 -42.74)"/><path class="cls-2" d="M484.21,299.79v-3.36h.54v.43a1.33,1.33,0,0,1,1.08-.54.81.81,0,0,1,.54.11,1.5,1.5,0,0,1,.43.33c.11.11.11.22.22.43v2.6h-.54v-2.06a.81.81,0,0,0-.11-.54c0-.11-.11-.22-.22-.33s-.22-.11-.43-.11a1.54,1.54,0,0,0-.65.22c-.22.11-.22.43-.22.87v1.84h-.65Z" transform="translate(-423.74 -42.74)"/><path class="cls-2" d="M489.08,299.24l.11.54h-.43c-.22,0-.33,0-.43-.11s-.22-.11-.22-.22a3.83,3.83,0,0,1-.11-.65v-2h-.43v-.43H488v-.87l.54-.33v1.19h.54v.43h-.54v2.28c0,.11,0,.11.11.11h.22C488.87,299.35,489,299.35,489.08,299.24Z" transform="translate(-423.74 -42.74)"/><path class="cls-2" d="M491.9,299.35a2.27,2.27,0,0,1-.65.43,1.37,1.37,0,0,1-.65.11,1.23,1.23,0,0,1-.87-.33.94.94,0,0,1-.33-.65c0-.22,0-.33.11-.43l.33-.33c.11-.11.22-.11.43-.22a4.69,4.69,0,0,1,.54-.11,6.91,6.91,0,0,0,1-.22v-.11a.81.81,0,0,0-.11-.54.92.92,0,0,0-.65-.22.81.81,0,0,0-.54.11,1.16,1.16,0,0,0-.33.54l-.54-.11a.83.83,0,0,1,.22-.54,2.37,2.37,0,0,1,.54-.33,1.61,1.61,0,0,1,.76-.11c.33,0,.54,0,.65.11s.33.11.43.22.11.22.22.43v2.28c0,.11.11.33.11.43H492C491.9,299.68,491.9,299.57,491.9,299.35Zm-.11-1.19a6.91,6.91,0,0,1-1,.22,4.69,4.69,0,0,0-.54.11.23.23,0,0,0-.22.22c0,.11-.11.22-.11.33a.82.82,0,0,0,.22.43,1.41,1.41,0,0,0,1.08,0c.22-.11.33-.22.33-.43a.81.81,0,0,0,.11-.54v-.33Z" transform="translate(-423.74 -42.74)"/><path class="cls-2" d="M493.31,295.78v-.65h.54v.65Zm0,4v-3.36h.54v3.36Z" transform="translate(-423.74 -42.74)"/><path class="cls-2" d="M494.72,299.79v-3.36h.54v.43a1.33,1.33,0,0,1,1.08-.54.81.81,0,0,1,.54.11,1.5,1.5,0,0,1,.43.33c.11.11.11.22.22.43v2.6H497v-2.06a.81.81,0,0,0-.11-.54c0-.11-.11-.22-.22-.33s-.22-.11-.43-.11a1.54,1.54,0,0,0-.65.22c-.22.11-.22.43-.22.87v1.84h-.65Z" transform="translate(-423.74 -42.74)"/><path class="cls-2" d="M501.44,299.24l.11.54h-.43c-.22,0-.33,0-.43-.11s-.22-.11-.22-.22a3.83,3.83,0,0,1-.11-.65v-2h-.43v-.43h.43v-.87l.54-.33v1.19h.54v.43h-.54v2.28c0,.11,0,.11.11.11h.22C501.22,299.35,501.33,299.35,501.44,299.24Z" transform="translate(-423.74 -42.74)"/><path class="cls-2" d="M502,299.79v-3.36h.54V297c.11-.22.22-.43.33-.43s.22-.11.33-.11a.83.83,0,0,1,.54.22l-.22.54a.65.65,0,0,0-.43-.11.4.4,0,0,0-.33.11c-.11.11-.22.22-.22.33a1.37,1.37,0,0,0-.11.65v1.73H502Z" transform="translate(-423.74 -42.74)"/><path class="cls-2" d="M506.31,299.35a2.27,2.27,0,0,1-.65.43,1.37,1.37,0,0,1-.65.11,1.23,1.23,0,0,1-.87-.33.94.94,0,0,1-.33-.65c0-.22,0-.33.11-.43l.33-.33c.11-.11.22-.11.43-.22a4.69,4.69,0,0,1,.54-.11,6.91,6.91,0,0,0,1-.22v-.11a.81.81,0,0,0-.11-.54.92.92,0,0,0-.65-.22.81.81,0,0,0-.54.11,1.16,1.16,0,0,0-.33.54l-.54-.11a.83.83,0,0,1,.22-.54,2.37,2.37,0,0,1,.54-.33,1.61,1.61,0,0,1,.76-.11c.33,0,.54,0,.65.11s.33.11.43.22.11.22.22.43v2.28c0,.11.11.33.11.43h-.65C506.42,299.68,506.31,299.57,506.31,299.35Zm0-1.19a6.91,6.91,0,0,1-1,.22,4.69,4.69,0,0,0-.54.11.23.23,0,0,0-.22.22c0,.11-.11.22-.11.33a.82.82,0,0,0,.22.43,1.41,1.41,0,0,0,1.08,0c.22-.11.33-.22.33-.43a.81.81,0,0,0,.11-.54v-.33Z" transform="translate(-423.74 -42.74)"/><path class="cls-2" d="M509.89,298.59l.54.11a1.63,1.63,0,0,1-.43.87,1.32,1.32,0,0,1-1,.33,1.26,1.26,0,0,1-1.08-.43,1.73,1.73,0,0,1-.43-1.3,3.16,3.16,0,0,1,.22-1c.11-.33.33-.43.54-.65a2,2,0,0,1,.76-.22,1.23,1.23,0,0,1,.87.33,1.1,1.1,0,0,1,.43.76l-.54.11a.6.6,0,0,0-.33-.54c-.22-.11-.33-.22-.43-.22a.66.66,0,0,0-.65.33c-.22.22-.22.54-.22,1a2.16,2.16,0,0,0,.22,1,.77.77,0,0,0,.65.33.83.83,0,0,0,.54-.22A.92.92,0,0,0,509.89,298.59Z" transform="translate(-423.74 -42.74)"/><path class="cls-2" d="M513.25,298.7l.54.11c-.11.33-.22.65-.54.76a2.59,2.59,0,0,1-1,.33,1.48,1.48,0,0,1-1.19-.43,2.17,2.17,0,0,1,0-2.6,1.39,1.39,0,0,1,1.08-.43,1.26,1.26,0,0,1,1.08.43,2.32,2.32,0,0,1,.43,1.3v.11h-2.49a1.23,1.23,0,0,0,.33.87,1,1,0,0,0,.76.33.83.83,0,0,0,.54-.22C512.92,299.14,513.25,298.92,513.25,298.7Zm-1.84-.87h1.84a.92.92,0,0,0-.22-.65,1,1,0,0,0-.76-.33,1.54,1.54,0,0,0-.65.22C511.41,297.18,511.41,297.51,511.41,297.83Z" transform="translate(-423.74 -42.74)"/><path class="cls-2" d="M518.67,298.7l.54.11c-.11.33-.22.65-.54.76a2.59,2.59,0,0,1-1,.33,1.48,1.48,0,0,1-1.19-.43,2.17,2.17,0,0,1,0-2.6,1.39,1.39,0,0,1,1.08-.43,1.26,1.26,0,0,1,1.08.43,2.32,2.32,0,0,1,.43,1.3v.11h-2.49a1.23,1.23,0,0,0,.33.87,1,1,0,0,0,.76.33.83.83,0,0,0,.54-.22C518.34,299.14,518.67,298.92,518.67,298.7Zm-1.84-.87h1.84a.92.92,0,0,0-.22-.65,1,1,0,0,0-.76-.33,1.54,1.54,0,0,0-.65.22C516.82,297.18,516.82,297.51,516.82,297.83Z" transform="translate(-423.74 -42.74)"/><path class="cls-2" d="M520,299.79v-4.66h.54v4.66Z" transform="translate(-423.74 -42.74)"/><path class="cls-2" d="M523.76,298.7l.54.11c-.11.33-.22.65-.54.76a2.59,2.59,0,0,1-1,.33,1.48,1.48,0,0,1-1.19-.43,2.17,2.17,0,0,1,0-2.6,1.39,1.39,0,0,1,1.08-.43,1.26,1.26,0,0,1,1.08.43,2.32,2.32,0,0,1,.43,1.3v.11H521.7a1.23,1.23,0,0,0,.33.87,1,1,0,0,0,.76.33.83.83,0,0,0,.54-.22A2.36,2.36,0,0,0,523.76,298.7Zm-1.84-.87h1.84a.92.92,0,0,0-.22-.65,1,1,0,0,0-.76-.33,1.54,1.54,0,0,0-.65.22C521.92,297.18,521.92,297.51,521.92,297.83Z" transform="translate(-423.74 -42.74)"/><path class="cls-2" d="M525.06,299.79v-3.36h.54v.43a.85.85,0,0,1,.43-.43,1.17,1.17,0,0,1,.65-.11,1.37,1.37,0,0,1,.65.11c.22.11.33.22.33.43a1.1,1.1,0,0,1,1.08-.54,1,1,0,0,1,.76.33c.22.22.22.43.22.87v2.28h-.54v-2.17a.81.81,0,0,0-.11-.54.23.23,0,0,0-.22-.22c-.11,0-.22-.11-.33-.11a.83.83,0,0,0-.54.22,1.26,1.26,0,0,0-.22.76v2h-.54v-2.17a.81.81,0,0,0-.11-.54.56.56,0,0,0-.43-.22.65.65,0,0,0-.43.11l-.33.33c-.11.11-.11.43-.11.76v1.73h-.76Z" transform="translate(-423.74 -42.74)"/><path class="cls-2" d="M532.75,298.7l.54.11c-.11.33-.22.65-.54.76a2.59,2.59,0,0,1-1,.33,1.48,1.48,0,0,1-1.19-.43,2.17,2.17,0,0,1,0-2.6,1.39,1.39,0,0,1,1.08-.43,1.26,1.26,0,0,1,1.08.43,2.32,2.32,0,0,1,.43,1.3v.11H530.7a1.23,1.23,0,0,0,.33.87,1,1,0,0,0,.76.33.83.83,0,0,0,.54-.22C532.43,299.14,532.75,298.92,532.75,298.7Zm-1.84-.87h1.84a.92.92,0,0,0-.22-.65,1,1,0,0,0-.76-.33,1.54,1.54,0,0,0-.65.22C530.91,297.18,530.91,297.51,530.91,297.83Z" transform="translate(-423.74 -42.74)"/><path class="cls-2" d="M534.16,299.79v-3.36h.54v.43a1.33,1.33,0,0,1,1.08-.54.81.81,0,0,1,.54.11,1.5,1.5,0,0,1,.43.33c.11.11.11.22.22.43v2.6h-.54v-2.06a.81.81,0,0,0-.11-.54c0-.11-.11-.22-.22-.33s-.22-.11-.43-.11a1.54,1.54,0,0,0-.65.22c-.22.11-.22.43-.22.87v1.84h-.65Z" transform="translate(-423.74 -42.74)"/><path class="cls-2" d="M538.93,299.24l.11.54h-.43c-.22,0-.33,0-.43-.11s-.22-.11-.22-.22a3.83,3.83,0,0,1-.11-.65v-2h-.43v-.43h.43v-.87l.54-.33v1.19h.54v.43h-.54v2.28c0,.11,0,.11.11.11h.22C538.82,299.35,538.82,299.35,538.93,299.24Z" transform="translate(-423.74 -42.74)"/><path class="cls-2" d="M539.26,298.81l.54-.11a.83.83,0,0,0,.22.54.92.92,0,0,0,.65.22.81.81,0,0,0,.54-.11c.11-.11.22-.22.22-.33s-.11-.22-.22-.33a1.83,1.83,0,0,1-.54-.22,2.38,2.38,0,0,1-.87-.33c-.11-.11-.33-.22-.33-.33a.92.92,0,0,1,0-.87c.11-.11.11-.22.33-.33s.22-.11.33-.22a4.69,4.69,0,0,1,.54-.11c.22,0,.54,0,.65.11s.33.22.43.33.11.33.22.54l-.54.11a.56.56,0,0,0-.22-.43,1.41,1.41,0,0,0-1.08,0c-.11.11-.22.22-.22.33s0,.11.11.22.11.11.22.11a2.2,2.2,0,0,0,.54.11,4.87,4.87,0,0,0,.87.22c.11.11.33.22.33.33a4.69,4.69,0,0,1,.11.54c0,.22-.11.33-.22.54s-.33.33-.43.43a1.61,1.61,0,0,1-.76.11,1.32,1.32,0,0,1-1-.33A1.75,1.75,0,0,1,539.26,298.81Z" transform="translate(-423.74 -42.74)"/><path class="cls-2" d="M430.13,306a1.87,1.87,0,0,1,.54-1.41,1.83,1.83,0,0,1,1.08-.33,1.26,1.26,0,0,1,1.08.43,1.73,1.73,0,0,1,.43,1.3,2.16,2.16,0,0,1-.22,1,1.31,1.31,0,0,1-.54.54,2,2,0,0,1-.87.22,1.63,1.63,0,0,1-1.19-.43A1.69,1.69,0,0,1,430.13,306Zm.65,0a1.32,1.32,0,0,0,.33,1,1,1,0,0,0,1.52,0,1.63,1.63,0,0,0,0-2,1,1,0,0,0-1.52,0A1.32,1.32,0,0,0,430.78,306Z" transform="translate(-423.74 -42.74)"/><path class="cls-2" d="M434.14,307.59v-2.93h-.54v-.43h.54v-.33a.81.81,0,0,1,.11-.54c.11-.11.11-.22.33-.33a.81.81,0,0,1,.54-.11,1.18,1.18,0,0,1,.54.11l-.11.54h-.33c-.22,0-.33,0-.33.11s-.11.22-.11.43v.33h.65v.43h-.65v2.93h-.65Z" transform="translate(-423.74 -42.74)"/><path class="cls-2" d="M439.78,306.4l.54.11a1.63,1.63,0,0,1-.43.87,1.32,1.32,0,0,1-1,.33,1.26,1.26,0,0,1-1.08-.43,1.73,1.73,0,0,1-.43-1.3,3.16,3.16,0,0,1,.22-1c.11-.33.33-.43.54-.65a2,2,0,0,1,.76-.22,1.23,1.23,0,0,1,.87.33,1.1,1.1,0,0,1,.43.76l-.54.11a.6.6,0,0,0-.33-.54c-.22-.11-.33-.22-.43-.22a.66.66,0,0,0-.65.33c-.22.22-.22.54-.22,1a2.16,2.16,0,0,0,.22,1,.77.77,0,0,0,.65.33.83.83,0,0,0,.54-.22A.92.92,0,0,0,439.78,306.4Z" transform="translate(-423.74 -42.74)"/><path class="cls-2" d="M440.86,307.59v-4.66h.54v1.63a1.18,1.18,0,0,1,1-.43,1.37,1.37,0,0,1,.65.11.85.85,0,0,1,.43.43,1.61,1.61,0,0,1,.11.76v2.17H443v-2.17a.92.92,0,0,0-.22-.65.83.83,0,0,0-.54-.22c-.22,0-.33,0-.43.11l-.33.33c-.11.11-.11.33-.11.65v1.84h-.54Z" transform="translate(-423.74 -42.74)"/><path class="cls-2" d="M446.82,306.5l.54.11c-.11.33-.22.65-.54.76a2.59,2.59,0,0,1-1,.33,1.48,1.48,0,0,1-1.19-.43,1.69,1.69,0,0,1-.33-1.3,1.73,1.73,0,0,1,.43-1.3,1.39,1.39,0,0,1,1.08-.43,1.26,1.26,0,0,1,1.08.43,2.32,2.32,0,0,1,.43,1.3v.11h-2.49a1.23,1.23,0,0,0,.33.87,1,1,0,0,0,.76.33.83.83,0,0,0,.54-.22A2.37,2.37,0,0,0,446.82,306.5Zm-1.84-.87h1.84a.92.92,0,0,0-.22-.65,1,1,0,0,0-.76-.33,1.54,1.54,0,0,0-.65.22C445,305,445,305.31,445,305.64Z" transform="translate(-423.74 -42.74)"/><path class="cls-2" d="M450.4,306.5l.54.11c-.11.33-.22.65-.54.76a2.59,2.59,0,0,1-1,.33,1.48,1.48,0,0,1-1.19-.43,2.17,2.17,0,0,1,0-2.6,1.39,1.39,0,0,1,1.08-.43,1.26,1.26,0,0,1,1.08.43,2.32,2.32,0,0,1,.43,1.3v.11h-2.49a1.23,1.23,0,0,0,.33.87,1,1,0,0,0,.76.33A.83.83,0,0,0,450,307,2.36,2.36,0,0,0,450.4,306.5Zm-1.84-.87h1.84a.92.92,0,0,0-.22-.65,1,1,0,0,0-.76-.33,1.54,1.54,0,0,0-.65.22C448.55,305,448.55,305.31,448.55,305.64Z" transform="translate(-423.74 -42.74)"/><path class="cls-2" d="M451.48,306.61l.54-.11a.83.83,0,0,0,.22.54.92.92,0,0,0,.65.22.81.81,0,0,0,.54-.11c.11-.11.22-.22.22-.33s-.11-.22-.22-.33a1.83,1.83,0,0,1-.54-.22A2.38,2.38,0,0,1,452,306c-.11-.11-.33-.22-.33-.33a.92.92,0,0,1,0-.87c.11-.11.11-.22.33-.33s.22-.11.33-.22a4.69,4.69,0,0,1,.54-.11c.22,0,.54,0,.65.11s.33.22.43.33.11.33.22.54l-.54.11a.56.56,0,0,0-.22-.43,1.41,1.41,0,0,0-1.08,0c-.11.11-.22.22-.22.33s0,.11.11.22.11.11.22.11a2.2,2.2,0,0,0,.54.11,4.87,4.87,0,0,0,.87.22c.11.11.33.22.33.33a4.69,4.69,0,0,1,.11.54c0,.22-.11.33-.22.54s-.33.33-.43.43a1.61,1.61,0,0,1-.76.11,1.32,1.32,0,0,1-1-.33A1.75,1.75,0,0,1,451.48,306.61Z" transform="translate(-423.74 -42.74)"/><path class="cls-2" d="M457.33,306.5l.54.11c-.11.33-.22.65-.54.76a2.59,2.59,0,0,1-1,.33,1.48,1.48,0,0,1-1.19-.43,2.17,2.17,0,0,1,0-2.6,1.39,1.39,0,0,1,1.08-.43,1.26,1.26,0,0,1,1.08.43,2.32,2.32,0,0,1,.43,1.3v.11h-2.49a1.23,1.23,0,0,0,.33.87,1,1,0,0,0,.76.33.83.83,0,0,0,.54-.22A2.36,2.36,0,0,0,457.33,306.5Zm-2-.87h2a.92.92,0,0,0-.22-.65,1,1,0,0,0-.76-.33,1.54,1.54,0,0,0-.65.22A.84.84,0,0,0,455.38,305.64Z" transform="translate(-423.74 -42.74)"/><path class="cls-2" d="M458.74,307.59v-.65h.65v.65Z" transform="translate(-423.74 -42.74)"/><path class="cls-2" d="M462.32,307.59v-4.66h1.52a2.11,2.11,0,0,1,.87.11,3.61,3.61,0,0,1,.65.33,1.94,1.94,0,0,1,.54.76,3.21,3.21,0,0,1,.22,1.08,3,3,0,0,1-.11,1,1.76,1.76,0,0,1-.33.65c-.11.11-.22.33-.43.43a.83.83,0,0,1-.54.22c-.22,0-.43.11-.76.11Zm.54-.54h1a1.61,1.61,0,0,0,.76-.11c.22-.11.33-.11.43-.22a2.37,2.37,0,0,0,.33-.54,2.11,2.11,0,0,0,.11-.87,2.72,2.72,0,0,0-.22-1.08,1.31,1.31,0,0,0-.54-.54,1.61,1.61,0,0,0-.76-.11h-1V307Z" transform="translate(-423.74 -42.74)"/><path class="cls-2" d="M466.65,306a1.87,1.87,0,0,1,.54-1.41,1.83,1.83,0,0,1,1.08-.33,1.26,1.26,0,0,1,1.08.43,1.73,1.73,0,0,1,.43,1.3,2.16,2.16,0,0,1-.22,1,1.31,1.31,0,0,1-.54.54,2,2,0,0,1-.87.22,1.63,1.63,0,0,1-1.19-.43A1.69,1.69,0,0,1,466.65,306Zm.65,0a1.32,1.32,0,0,0,.33,1,1,1,0,0,0,1.52,0,1.63,1.63,0,0,0,0-2,1,1,0,0,0-1.52,0A1.32,1.32,0,0,0,467.3,306Z" transform="translate(-423.74 -42.74)"/><path class="cls-2" d="M472.29,307.59v-3.36h.54v.43a1.33,1.33,0,0,1,1.08-.54.81.81,0,0,1,.54.11,1.5,1.5,0,0,1,.43.33c.11.11.11.22.22.43v2.6h-.54v-2.06a.81.81,0,0,0-.11-.54c0-.11-.11-.22-.22-.33s-.22-.11-.43-.11a1.54,1.54,0,0,0-.65.22c-.22.11-.22.43-.22.87v1.84h-.65Z" transform="translate(-423.74 -42.74)"/><path class="cls-2" d="M475.75,306a1.87,1.87,0,0,1,.54-1.41,1.83,1.83,0,0,1,1.08-.33,1.26,1.26,0,0,1,1.08.43,1.73,1.73,0,0,1,.43,1.3,2.16,2.16,0,0,1-.22,1,1.31,1.31,0,0,1-.54.54,2,2,0,0,1-.87.22,1.63,1.63,0,0,1-1.19-.43A1.69,1.69,0,0,1,475.75,306Zm.54,0a1.32,1.32,0,0,0,.33,1,1,1,0,0,0,1.52,0,1.63,1.63,0,0,0,0-2,1,1,0,0,0-1.52,0A1.32,1.32,0,0,0,476.3,306Z" transform="translate(-423.74 -42.74)"/><path class="cls-2" d="M480.85,307l.11.54h-.43c-.22,0-.33,0-.43-.11s-.22-.11-.22-.22a3.83,3.83,0,0,1-.11-.65v-2h-.43v-.43h.43v-.87l.54-.33v1.19h.54v.43h-.54v2.28c0,.11,0,.11.11.11h.22C480.63,307.15,480.74,307.15,480.85,307Z" transform="translate(-423.74 -42.74)"/><path class="cls-2" d="M485.4,306.4l.54.11a1.63,1.63,0,0,1-.43.87,1.32,1.32,0,0,1-1,.33,1.26,1.26,0,0,1-1.08-.43A1.73,1.73,0,0,1,483,306a3.16,3.16,0,0,1,.22-1c.11-.33.33-.43.54-.65a2,2,0,0,1,.76-.22,1.23,1.23,0,0,1,.87.33,1.1,1.1,0,0,1,.43.76l-.54.11a.6.6,0,0,0-.33-.54c-.22-.11-.33-.22-.43-.22a.66.66,0,0,0-.65.33c-.22.22-.22.54-.22,1a2.16,2.16,0,0,0,.22,1,.77.77,0,0,0,.65.33.83.83,0,0,0,.54-.22A2.37,2.37,0,0,0,485.4,306.4Z" transform="translate(-423.74 -42.74)"/><path class="cls-2" d="M486.16,306a1.87,1.87,0,0,1,.54-1.41,1.83,1.83,0,0,1,1.08-.33,1.26,1.26,0,0,1,1.08.43,1.73,1.73,0,0,1,.43,1.3,2.16,2.16,0,0,1-.22,1,1.31,1.31,0,0,1-.54.54,2,2,0,0,1-.87.22,1.63,1.63,0,0,1-1.19-.43A1.69,1.69,0,0,1,486.16,306Zm.65,0a1.32,1.32,0,0,0,.33,1,1,1,0,0,0,1.52,0,1.63,1.63,0,0,0,0-2,1,1,0,0,0-1.52,0A1.32,1.32,0,0,0,486.81,306Z" transform="translate(-423.74 -42.74)"/><path class="cls-2" d="M490.06,307.59v-3.36h.54v.43a1.33,1.33,0,0,1,1.08-.54.81.81,0,0,1,.54.11,1.5,1.5,0,0,1,.43.33c.11.11.11.22.22.43v2.6h-.54v-2.06a.81.81,0,0,0-.11-.54c0-.11-.11-.22-.22-.33s-.22-.11-.43-.11a1.54,1.54,0,0,0-.65.22c-.22.11-.22.43-.22.87v1.84h-.65Z" transform="translate(-423.74 -42.74)"/><path class="cls-2" d="M493.42,306.61l.54-.11a.83.83,0,0,0,.22.54.92.92,0,0,0,.65.22.81.81,0,0,0,.54-.11c.11-.11.22-.22.22-.33s-.11-.22-.22-.33a1.83,1.83,0,0,1-.54-.22A2.38,2.38,0,0,1,494,306c-.11-.11-.33-.22-.33-.33a.92.92,0,0,1,0-.87c.11-.11.11-.22.33-.33s.22-.11.33-.22a4.69,4.69,0,0,1,.54-.11c.22,0,.54,0,.65.11s.33.22.43.33.11.33.22.54l-.54.11a.56.56,0,0,0-.22-.43,1.41,1.41,0,0,0-1.08,0c-.11.11-.22.22-.22.33s0,.11.11.22.11.11.22.11a2.2,2.2,0,0,0,.54.11,4.87,4.87,0,0,0,.87.22c.11.11.33.22.33.33a4.69,4.69,0,0,1,.11.54c0,.22-.11.33-.22.54s-.33.33-.43.43a1.61,1.61,0,0,1-.76.11,1.32,1.32,0,0,1-1-.33A1.75,1.75,0,0,1,493.42,306.61Z" transform="translate(-423.74 -42.74)"/><path class="cls-2" d="M499.16,307.59V307a1.1,1.1,0,0,1-1.08.54.81.81,0,0,1-.54-.11c-.11-.11-.33-.22-.43-.33s-.11-.22-.22-.43v-2.6h.54v2.49c0,.11.11.22.22.33s.22.11.43.11.33,0,.43-.11l.33-.33c.11-.11.11-.33.11-.65v-1.84h.65v3.36h-.43Z" transform="translate(-423.74 -42.74)"/><path class="cls-2" d="M500.57,307.59v-3.36h.54v.43a.85.85,0,0,1,.43-.43,1.17,1.17,0,0,1,.65-.11,1.37,1.37,0,0,1,.65.11c.22.11.33.22.33.43a1.1,1.1,0,0,1,1.08-.54,1,1,0,0,1,.76.33c.22.22.22.43.22.87v2.28h-.54v-2.17a.81.81,0,0,0-.11-.54.23.23,0,0,0-.22-.22c-.11,0-.22-.11-.33-.11a.83.83,0,0,0-.54.22,1.26,1.26,0,0,0-.22.76v2h-.54v-2.17a.81.81,0,0,0-.11-.54.56.56,0,0,0-.43-.22.65.65,0,0,0-.43.11l-.33.33c-.11.11-.11.43-.11.76v1.73h-.76Z" transform="translate(-423.74 -42.74)"/><path class="cls-2" d="M508.26,306.5l.54.11c-.11.33-.22.65-.54.76a2.59,2.59,0,0,1-1,.33,1.48,1.48,0,0,1-1.19-.43,2.17,2.17,0,0,1,0-2.6,1.39,1.39,0,0,1,1.08-.43,1.26,1.26,0,0,1,1.08.43,2.32,2.32,0,0,1,.43,1.3v.11H506.2a1.23,1.23,0,0,0,.33.87,1,1,0,0,0,.76.33.83.83,0,0,0,.54-.22A2.36,2.36,0,0,0,508.26,306.5Zm-1.84-.87h1.84A.92.92,0,0,0,508,305a1,1,0,0,0-.76-.33,1.54,1.54,0,0,0-.65.22C506.42,305,506.42,305.31,506.42,305.64Z" transform="translate(-423.74 -42.74)"/><path class="cls-2" d="M509.67,307.59v-.65h.65v.65Z" transform="translate(-423.74 -42.74)"/><path id="path196" class="cls-61" d="M464.27,378.57s-2.38-61.88-2-75.1.65-25.25,1-27.74c2.71-23.84,6.5-47.68,12.35-71,.87,6.5,0,13-.22,19.51-.65,17.12-1.19,34.24-2.17,51.47-.11,2.71-.54,12.68-1.41,27.85s-4.33,75.1-4.33,75.1c-.11,2.17-.33,4.33-.43,6.39-.43,2.71-1,5.53-1.63,8.24a41.43,41.43,0,0,1-.87-8.13C464.48,382.79,464.37,380.63,464.27,378.57Z" transform="translate(-423.74 -42.74)"/><path id="path190" class="cls-61" d="M441.51,241.92c1.19-12.79,2.06-25.68,5.85-38,1.3-3.36,2.6-7.48,6.07-9.21,3.36-1.08,6,2.17,7.48,4.77,4.88,7.8,5.74,17.34,4.55,26.33-2.06,16.69-5.64,33.49-7.8,49.74s.43,107.18.54,109.45c1,20.81-.22,41.94-5.85,62.09-2.06,6.18-4.12,12.68-7.37,18.42-4,7.37-8,10.62-8.67,11.16-1-1.63-2.6-3-2.28-5.09,0-4.77,1.41-9.43,2.38-14.09l1.84-7.26c6-21,7.59-43.13,7.26-64.91,0-11.81-1-15.71-3-59.93C440.21,275.94,441,253.3,441.51,241.92Z" transform="translate(-423.74 -42.74)"/><rect class="cls-62" x="374.95" y="446.58" width="7.69" height="7.69"/><rect class="cls-63" x="367.26" y="446.58" width="7.69" height="7.69"/><rect class="cls-64" x="428.48" y="446.58" width="7.69" height="7.69"/><rect class="cls-27" x="413.2" y="446.58" width="15.28" height="7.69"/><rect class="cls-65" x="405.51" y="446.58" width="7.69" height="7.69"/><rect class="cls-66" x="397.92" y="446.58" width="7.69" height="7.69"/><rect class="cls-67" x="382.54" y="446.58" width="15.28" height="7.69"/><rect class="cls-68" x="374.95" y="439" width="7.69" height="7.69"/><rect class="cls-69" x="351.98" y="439" width="7.69" height="7.69"/><rect class="cls-70" x="436.18" y="439" width="7.69" height="7.69"/><rect class="cls-71" x="390.23" y="439" width="7.69" height="7.69"/><rect class="cls-62" x="382.54" y="439" width="7.69" height="7.69"/><rect class="cls-62" x="374.95" y="431.3" width="7.69" height="7.69"/><rect class="cls-72" x="367.26" y="431.3" width="7.69" height="15.28"/><rect class="cls-73" x="359.67" y="431.3" width="7.69" height="15.28"/><rect class="cls-27" x="351.98" y="431.3" width="7.69" height="7.69"/><rect class="cls-74" x="344.28" y="431.3" width="7.69" height="7.69"/><rect class="cls-75" x="443.76" y="431.3" width="7.69" height="7.69"/><rect class="cls-76" x="390.23" y="431.3" width="7.69" height="7.69"/><rect class="cls-77" x="374.95" y="423.61" width="7.69" height="7.69"/><rect class="cls-78" x="367.26" y="423.61" width="7.69" height="7.69"/><rect class="cls-79" x="359.67" y="423.61" width="7.69" height="7.69"/><rect class="cls-80" x="351.98" y="423.61" width="7.69" height="7.69"/><rect class="cls-81" x="344.28" y="423.61" width="7.69" height="7.69"/><rect class="cls-82" x="336.7" y="423.61" width="7.69" height="7.69"/><rect class="cls-83" x="436.18" y="423.61" width="7.69" height="15.28"/><rect class="cls-84" x="390.23" y="423.61" width="7.69" height="7.69"/><rect class="cls-67" x="382.54" y="423.61" width="7.69" height="15.28"/><rect class="cls-85" x="367.26" y="416.02" width="7.69" height="7.69"/><rect class="cls-86" x="329" y="416.02" width="7.69" height="15.28"/><rect class="cls-87" x="451.46" y="416.02" width="7.69" height="15.28"/><rect class="cls-55" x="443.76" y="416.02" width="7.69" height="15.28"/><rect class="cls-88" x="321.42" y="408.33" width="7.69" height="7.69"/><rect class="cls-89" x="436.18" y="408.33" width="7.69" height="15.28"/><rect class="cls-90" x="313.72" y="400.74" width="7.69" height="7.69"/><rect class="cls-91" x="451.46" y="400.74" width="7.69" height="15.28"/><rect class="cls-92" x="443.76" y="400.74" width="7.69" height="15.28"/><rect class="cls-79" x="313.72" y="393.05" width="7.69" height="7.69"/><rect class="cls-93" x="436.18" y="393.05" width="7.69" height="15.28"/><rect class="cls-94" x="374.95" y="385.46" width="7.69" height="7.69"/><rect class="cls-95" x="359.67" y="385.46" width="15.28" height="7.69"/><rect class="cls-96" x="351.98" y="385.46" width="7.69" height="7.69"/><rect class="cls-97" x="306.03" y="385.46" width="7.69" height="7.69"/><rect class="cls-98" x="451.46" y="385.46" width="7.69" height="15.28"/><rect class="cls-99" x="443.76" y="377.77" width="7.69" height="22.97"/><rect class="cls-88" x="374.95" y="370.07" width="7.69" height="7.69"/><rect class="cls-100" x="367.26" y="370.07" width="7.69" height="7.69"/><rect class="cls-101" x="359.67" y="370.07" width="7.69" height="7.69"/><rect class="cls-102" x="351.98" y="370.07" width="7.69" height="7.69"/><rect class="cls-103" x="344.28" y="370.07" width="7.69" height="22.97"/><rect class="cls-104" x="321.42" y="370.07" width="7.69" height="7.69"/><rect class="cls-88" x="313.72" y="370.07" width="7.69" height="22.97"/><rect class="cls-105" x="306.03" y="370.07" width="7.69" height="15.28"/><rect class="cls-106" x="451.46" y="370.07" width="7.69" height="15.28"/><rect class="cls-107" x="397.92" y="370.07" width="7.69" height="22.97"/><polygon class="cls-108" points="397.92 385.46 390.23 385.46 390.23 377.77 382.54 377.77 382.54 370.07 397.92 370.07 397.92 385.46"/><rect class="cls-94" x="359.67" y="362.49" width="15.28" height="7.69"/><rect class="cls-94" x="344.28" y="362.49" width="7.69" height="7.69"/><rect class="cls-109" x="306.03" y="362.49" width="7.69" height="7.69"/><rect class="cls-110" x="443.76" y="362.49" width="7.69" height="15.28"/><rect class="cls-94" x="382.54" y="362.49" width="15.28" height="7.69"/><polygon class="cls-21" points="336.7 377.77 329 377.77 329 370.07 321.42 370.07 321.42 362.49 336.7 362.49 336.7 377.77"/><rect class="cls-111" x="351.98" y="354.79" width="7.69" height="15.28"/><rect class="cls-112" x="344.28" y="354.79" width="7.69" height="7.69"/><rect class="cls-113" x="451.46" y="354.79" width="7.69" height="15.28"/><rect class="cls-114" x="306.03" y="347.21" width="7.69" height="15.28"/><rect class="cls-53" x="443.76" y="347.21" width="7.69" height="15.28"/><rect class="cls-115" x="428.48" y="347.21" width="15.28" height="7.69"/><polygon class="cls-116" points="313.72 347.21 382.54 347.21 382.54 370.07 374.95 370.07 374.95 362.49 359.67 362.49 359.67 354.79 344.28 354.79 344.28 393.05 382.54 393.05 382.54 423.61 374.95 423.61 374.95 416.02 367.26 416.02 367.26 423.61 336.7 423.61 336.7 416.02 329 416.02 329 408.33 321.42 408.33 321.42 393.05 329 393.05 329 377.77 336.7 377.77 336.7 362.49 321.42 362.49 321.42 370.07 313.72 370.07 313.72 347.21"/><polygon class="cls-117" points="382.54 347.21 428.48 347.21 428.48 354.79 443.76 354.79 443.76 393.05 436.18 393.05 436.18 446.58 397.92 446.58 397.92 423.61 382.54 423.61 382.54 393.05 405.51 393.05 405.51 370.07 397.92 370.07 397.92 362.49 382.54 362.49 382.54 347.21"/><rect class="cls-118" x="367.26" y="339.51" width="15.28" height="7.69"/><rect class="cls-24" x="351.98" y="339.51" width="15.28" height="7.69"/><rect class="cls-119" x="336.7" y="339.51" width="15.28" height="7.69"/><rect class="cls-72" x="321.42" y="339.51" width="15.28" height="7.69"/><rect class="cls-120" x="313.72" y="339.51" width="7.69" height="7.69"/><rect class="cls-121" x="306.03" y="339.51" width="7.69" height="7.69"/><rect class="cls-42" x="451.46" y="339.51" width="7.69" height="15.28"/><rect class="cls-122" x="413.2" y="339.51" width="7.69" height="7.69"/><rect class="cls-123" x="397.92" y="339.51" width="15.28" height="7.69"/><rect class="cls-124" x="382.54" y="339.51" width="15.28" height="7.69"/><rect class="cls-125" x="306.03" y="331.82" width="7.69" height="7.69"/><rect class="cls-39" x="443.76" y="331.82" width="7.69" height="15.28"/><rect class="cls-126" x="306.03" y="324.23" width="7.69" height="7.69"/><rect class="cls-127" x="436.18" y="324.23" width="7.69" height="22.97"/><rect class="cls-17" x="313.72" y="316.54" width="7.69" height="7.69"/><rect class="cls-128" x="443.76" y="316.54" width="7.69" height="15.28"/><rect class="cls-63" x="313.72" y="308.95" width="7.69" height="7.69"/><rect class="cls-43" x="451.46" y="308.95" width="7.69" height="30.56"/><rect class="cls-129" x="321.42" y="301.26" width="7.69" height="7.69"/><rect class="cls-17" x="329" y="293.57" width="7.69" height="7.69"/><rect class="cls-38" x="443.76" y="293.57" width="7.69" height="22.97"/><rect class="cls-130" x="436.18" y="293.57" width="7.69" height="7.69"/><rect class="cls-131" x="428.48" y="293.57" width="7.69" height="7.69"/><rect class="cls-132" x="420.79" y="293.57" width="7.69" height="7.69"/><rect class="cls-133" x="413.2" y="293.57" width="7.69" height="7.69"/><polygon class="cls-2" points="413.2 293.57 413.2 301.26 443.76 301.26 443.76 324.24 436.18 324.24 436.18 347.21 420.79 347.21 420.79 339.51 313.72 339.51 313.72 324.24 321.42 324.24 321.42 308.95 329 308.95 329 301.26 336.7 301.26 336.7 293.57 413.2 293.57"/><rect class="cls-56" x="374.95" y="285.98" width="15.28" height="7.69"/><rect class="cls-45" x="359.67" y="285.98" width="15.28" height="7.69"/><rect class="cls-134" x="351.98" y="285.98" width="7.69" height="7.69"/><rect class="cls-135" x="344.28" y="285.98" width="7.69" height="7.69"/><rect class="cls-136" x="336.7" y="285.98" width="7.69" height="7.69"/><rect class="cls-137" x="329" y="285.98" width="7.69" height="7.69"/><rect class="cls-138" x="451.46" y="285.98" width="7.69" height="22.97"/><rect class="cls-139" x="443.76" y="285.98" width="7.69" height="7.69"/><rect class="cls-140" x="390.23" y="285.98" width="7.69" height="7.69"/><rect class="cls-141" x="344.28" y="278.29" width="7.69" height="7.69"/><rect class="cls-142" x="451.46" y="278.29" width="7.69" height="7.69"/><rect class="cls-143" x="443.76" y="278.29" width="7.69" height="7.69"/><rect class="cls-144" x="359.67" y="270.7" width="7.69" height="7.69"/><rect class="cls-145" x="351.98" y="270.7" width="7.69" height="7.69"/><rect class="cls-146" x="443.76" y="270.7" width="7.69" height="7.69"/><rect class="cls-147" x="436.18" y="270.7" width="7.69" height="7.69"/><rect class="cls-148" x="390.23" y="270.7" width="7.69" height="15.28"/><polygon class="cls-41" points="367.26 270.7 390.23 270.7 390.23 285.98 351.98 285.98 351.98 278.29 367.26 278.29 367.26 270.7"/><polygon class="cls-149" points="436.18 270.7 436.18 278.29 443.76 278.29 443.76 293.57 397.92 293.57 397.92 270.7 436.18 270.7"/><rect class="cls-150" x="374.95" y="263.01" width="7.69" height="7.69"/><rect class="cls-145" x="367.26" y="263.01" width="7.69" height="7.69"/><rect class="cls-151" x="428.48" y="263.01" width="7.69" height="7.69"/><rect class="cls-152" x="420.79" y="263.01" width="7.69" height="7.69"/><rect class="cls-147" x="405.51" y="263.01" width="15.28" height="7.69"/><rect class="cls-153" x="397.92" y="263.01" width="7.69" height="7.69"/><rect class="cls-154" x="390.23" y="263.01" width="7.69" height="7.69"/><rect class="cls-155" x="382.54" y="263.01" width="7.69" height="7.69"/><rect class="cls-156" x="374.95" y="377.77" width="7.69" height="7.69"/><rect class="cls-157" x="367.26" y="377.77" width="7.69" height="7.69"/><rect class="cls-158" x="351.98" y="377.77" width="15.28" height="7.69"/><rect class="cls-159" x="321.42" y="377.77" width="7.69" height="15.28"/><polygon class="cls-160" points="397.92 393.05 382.54 393.05 382.54 377.77 390.23 377.77 390.23 385.46 397.92 385.46 397.92 393.05"/><path id="path120" class="cls-149" d="M811.69,91.29c19.83-2.82,40.2,1.73,57.87,11.05v.33a179.44,179.44,0,0,0-1.08,20.16c-17.77-1.41-35.65-3.14-53.42-4.44.65-9.1.65-18.21,1.08-27.2C814.51,91.18,813.1,91.18,811.69,91.29Z" transform="translate(-423.74 -42.74)"/><path id="path122" class="cls-41" d="M761,114.8a92.42,92.42,0,0,1,50.72-23.52c1.41-.11,2.82-.11,4.23-.11-.33,9.1-.43,18.21-1.08,27.2C797,117.19,779,115.56,761,114.8Z" transform="translate(-423.74 -42.74)"/><path id="path124" class="cls-47" d="M868.37,122.82c0-6.72.43-13.55,1.08-20.16,2.49,1.41,5,2.93,7.37,4.55-2.17,31.21-3.58,62.42-5.53,93.63-1.19,22.43-2.93,45-3.79,67.4v.33c-1.3.65-2.6,1.19-3.79,1.84,2.06-32.08,3.9-64,6-96.12-1.3-.11-2.49-.11-3.79-.22C866.63,157,867.83,139.84,868.37,122.82Z" transform="translate(-423.74 -42.74)"/><path id="path126" class="cls-32" d="M876.82,107.22a60.62,60.62,0,0,1,7.15,5.64C881,163,878.23,213.2,875.09,263.37c-2,2.38-5,3.47-7.69,4.88.87-22.54,2.6-45,3.79-67.4C873.35,169.64,874.65,138.32,876.82,107.22Z" transform="translate(-423.74 -42.74)"/><path id="path128" class="cls-2" d="M731.39,168.88c3.14-20.7,14.09-40,29.48-54.08,18,.76,36,2.38,54,3.58s35.65,3,53.42,4.44c-.54,17.12-1.73,34.14-2.49,51.26-17.66-.76-35.44-1.41-53.1-2.17C785.68,170.83,758.59,169.74,731.39,168.88Z" transform="translate(-423.74 -42.74)"/><path id="path166" class="cls-117" d="M812.78,275.19s.11-97.21-.11-103.27c17.66.76,35.44,1.41,53.1,2.17,1.3,0,2.49.11,3.79.22-2,32.08-3.9,64-6,96.12A95.37,95.37,0,0,1,833.26,279c-5.85.33-11.81,1.41-17.56-.65Z" transform="translate(-423.74 -42.74)"/><path id="path192" class="cls-161" d="M812.78,275.19l3,3.14c-3.25.65-6.5-.22-9.54-1-1.73-.22-3.58-.43-5.31-.76a55.39,55.39,0,0,1-8.24-2.49c-2.28-.43-4.44-1.84-6.72-2.38h0c-1.3-.65-2.6-1.52-3.9-2.28a81.53,81.53,0,0,1-10.84-6.07c-1-.76-2.06-1.52-3-2.38-14.52-10.84-26.33-25.9-32.29-43-.43-1.19-1-2.49-1.41-3.68-.11-.22-1.52-5.2-2.06-7.15l-.22-.87a63,63,0,0,1-1.63-10.08c-.11-.87-.22-2.49-.33-3.36-.33-8-.43-16.15,1.19-24.06,27.09.87,54.18,2,81.28,3C812.88,178,812.78,275.19,812.78,275.19Z" transform="translate(-423.74 -42.74)"/><g id="text_kopia" data-name="text kopia"><g class="cls-162"><path class="cls-2" d="M749.49,212l4.12.54a10.19,10.19,0,0,1-3.58,5.64,11,11,0,0,1-6.72,2,11.11,11.11,0,0,1-8.24-3.14c-2.06-2.17-3-5.09-3-9s1-7,3-9.21a10.38,10.38,0,0,1,7.91-3.25,9.91,9.91,0,0,1,7.69,3.25c2,2.17,3,5.2,3,9.1V209H736.16a9,9,0,0,0,2.17,6,6.88,6.88,0,0,0,8.78.87A8.18,8.18,0,0,0,749.49,212Zm-13.11-6.5H749.6a8,8,0,0,0-1.52-4.44,6.22,6.22,0,0,0-5-2.28,6.64,6.64,0,0,0-4.66,1.84A6.76,6.76,0,0,0,736.38,205.51Z" transform="translate(-423.74 -42.74)"/><path class="cls-2" d="M758.59,219.59V196h3.58v3.58a10.26,10.26,0,0,1,2.49-3.36,4.32,4.32,0,0,1,2.6-.76,8,8,0,0,1,4.12,1.3L770,200.41a6.06,6.06,0,0,0-2.93-.87,3.9,3.9,0,0,0-2.38.76,4.41,4.41,0,0,0-1.52,2.17,15.62,15.62,0,0,0-.65,4.66v12.35h-3.9Z" transform="translate(-423.74 -42.74)"/><path class="cls-2" d="M786.44,191.64v-4.55h4v4.55Zm0,28V196h4v23.62Z" transform="translate(-423.74 -42.74)"/><path class="cls-2" d="M812,210.92l3.9.54a10.39,10.39,0,0,1-3.25,6.39,9.52,9.52,0,0,1-6.5,2.28,10.28,10.28,0,0,1-7.8-3.14q-2.93-3.09-2.93-9.1a16.16,16.16,0,0,1,1.3-6.72,9,9,0,0,1,3.9-4.33,11.16,11.16,0,0,1,5.64-1.41,9.68,9.68,0,0,1,6.29,2,8.85,8.85,0,0,1,3.14,5.53l-3.9.65a5.76,5.76,0,0,0-2-3.58,5.3,5.3,0,0,0-3.36-1.19,6.09,6.09,0,0,0-4.88,2.17c-1.19,1.41-1.84,3.68-1.84,6.83s.65,5.53,1.84,6.94a6,6,0,0,0,4.77,2.17,5.41,5.41,0,0,0,3.9-1.41C811.26,214.5,811.69,212.87,812,210.92Z" transform="translate(-423.74 -42.74)"/><path class="cls-2" d="M835.53,212l4.12.54a10.19,10.19,0,0,1-3.58,5.64,11,11,0,0,1-6.72,2,11.11,11.11,0,0,1-8.24-3.14c-2.06-2.17-3-5.09-3-9s1-7,3-9.21a10.38,10.38,0,0,1,7.91-3.25,9.91,9.91,0,0,1,7.69,3.25c2,2.17,3,5.2,3,9.1V209H822.2a9,9,0,0,0,2.17,6,6.88,6.88,0,0,0,8.78.87A8.18,8.18,0,0,0,835.53,212Zm-13.22-6.5h13.22a8,8,0,0,0-1.52-4.44,6.22,6.22,0,0,0-5-2.28,6.64,6.64,0,0,0-4.66,1.84A7.23,7.23,0,0,0,822.31,205.51Z" transform="translate(-423.74 -42.74)"/><path class="cls-2" d="M762.17,266.63l4.12.54a10.19,10.19,0,0,1-3.58,5.64,11,11,0,0,1-6.72,2,11.11,11.11,0,0,1-8.24-3.14c-2.06-2.17-3-5.09-3-9s1-7,3-9.21a10.38,10.38,0,0,1,7.91-3.25,9.91,9.91,0,0,1,7.69,3.25c2,2.17,3,5.2,3,9.1v1.08H748.84a9,9,0,0,0,2.17,6,6.88,6.88,0,0,0,8.78.87A8.18,8.18,0,0,0,762.17,266.63Zm-13.22-6.5h13.22a8,8,0,0,0-1.52-4.44,6.22,6.22,0,0,0-5-2.28,6.64,6.64,0,0,0-4.66,1.84A7.23,7.23,0,0,0,748.95,260.12Z" transform="translate(-423.74 -42.74)"/><path class="cls-2" d="M771.27,274.21V250.59h3.58v3.36a8.45,8.45,0,0,1,7.48-3.9,9.29,9.29,0,0,1,3.9.76,6.67,6.67,0,0,1,2.71,2.06,7,7,0,0,1,1.19,2.93,29,29,0,0,1,.22,3.9v14.52h-4v-14.3a11,11,0,0,0-.43-3.68,4.07,4.07,0,0,0-1.63-2,4.78,4.78,0,0,0-2.82-.76,6.61,6.61,0,0,0-4.44,1.63c-1.3,1.08-1.84,3.14-1.84,6.18v12.9h-3.9Z" transform="translate(-423.74 -42.74)"/><path class="cls-2" d="M805.3,270.63l.54,3.58a16.11,16.11,0,0,1-3,.33,7.11,7.11,0,0,1-3.36-.65,4.06,4.06,0,0,1-1.73-1.84,13.88,13.88,0,0,1-.54-4.77V253.73h-2.82v-3.14h2.93v-5.85l4-2.38v8.24h4v3.14h-4v13.76a7.49,7.49,0,0,0,.22,2.17,1.46,1.46,0,0,0,.65.76,2.46,2.46,0,0,0,1.41.33A10.55,10.55,0,0,0,805.3,270.63Z" transform="translate(-423.74 -42.74)"/><path class="cls-2" d="M807.68,267.17l4-.65a5.73,5.73,0,0,0,1.84,3.68,6.17,6.17,0,0,0,4.23,1.3,6.24,6.24,0,0,0,4.12-1.08,3.39,3.39,0,0,0,1.3-2.6,2.64,2.64,0,0,0-1.19-2.17,26.62,26.62,0,0,0-4.12-1.41,36.23,36.23,0,0,1-6.07-2,6.62,6.62,0,0,1-2.6-2.28,5.53,5.53,0,0,1-.87-3.14,5.37,5.37,0,0,1,.76-2.93,6.45,6.45,0,0,1,2-2.28,10.69,10.69,0,0,1,2.49-1.19A11.7,11.7,0,0,1,817,250a13.56,13.56,0,0,1,4.88.76A7.71,7.71,0,0,1,825,253a8.2,8.2,0,0,1,1.41,3.68l-3.9.54a4.27,4.27,0,0,0-1.52-2.82,5.84,5.84,0,0,0-3.58-1,6.9,6.9,0,0,0-3.9.87,2.64,2.64,0,0,0-1.19,2.17,2.28,2.28,0,0,0,.54,1.41,4.21,4.21,0,0,0,1.52,1.08c.43.11,1.63.54,3.58,1,2.82.76,4.77,1.41,6,1.84a6.14,6.14,0,0,1,2.6,2.06,5.72,5.72,0,0,1,1,3.47,7.11,7.11,0,0,1-1.19,3.79,7.63,7.63,0,0,1-3.36,2.71,12,12,0,0,1-5,1c-3,0-5.42-.65-7-2A8.1,8.1,0,0,1,807.68,267.17Z" transform="translate(-423.74 -42.74)"/></g></g><polygon class="cls-163" points="130.26 246.43 257.59 286.41 260.3 283.6 133.72 244.37 260.3 205.03 257.59 202.21 130.26 242.2 130.26 246.43"/><polygon class="cls-2" points="254.66 289.12 264.74 290.86 263.01 280.67 254.66 289.12"/><polygon class="cls-2" points="254.66 199.5 264.74 197.88 263.01 207.96 254.66 199.5"/><circle class="cls-164" cx="116.93" cy="244.37" r="14.2"/><path class="cls-165" d="M540.67,302.28a15.17,15.17,0,1,1,15.17-15.17A15.15,15.15,0,0,1,540.67,302.28Zm12.79-15.17a12.56,12.56,0,0,0-12.68-12.35,12.36,12.36,0,1,0,12.68,12.35Z" transform="translate(-423.74 -42.74)"/></svg>